<svg width="38" height="39" fill="none" xmlns="http://www.w3.org/2000/svg"><g clip-path="url(#clip0)"><path d="M35.3 17.92h-.375v-6.19a3.942 3.942 0 00-3.937-3.938H7.012a3.942 3.942 0 00-3.937 3.937v6.192H2.7a2.703 2.703 0 00-2.7 2.7v4c0 1.49 1.211 2.7 2.7 2.7h3.338v2.541a.844.844 0 101.69 0v-2.54h22.545v2.54a.844.844 0 101.689 0v-2.54H35.3c1.489 0 2.7-1.212 2.7-2.7V20.62c0-1.49-1.211-2.7-2.7-2.7zM4.764 11.73a2.251 2.251 0 012.248-2.25h23.976a2.251 2.251 0 012.248 2.25v6.19h-1.082v-1.695c0-1.082-.88-1.961-1.961-1.961h-8.656c-1.082 0-1.961.88-1.961 1.96v1.697h-1.152v-1.696c0-1.082-.88-1.961-1.961-1.961H7.807c-1.081 0-1.96.88-1.96 1.96v1.697H4.763v-6.192zm16.5 6.19v-1.695c0-.148.125-.272.273-.272h8.656c.147 0 .272.124.272.272v1.696h-9.2zm-13.729 0v-1.695c0-.148.125-.272.272-.272h8.656c.148 0 .273.124.273.272v1.696h-9.2zm28.776 6.701c0 .558-.454 1.012-1.011 1.012H2.7a1.012 1.012 0 01-1.01-1.013v-4c0-.558.454-1.011 1.011-1.011h32.6c.557 0 1.011.453 1.011 1.01v4.001z" fill="#212326"/></g><defs><clipPath id="clip0"><path fill="#fff" transform="translate(0 .25)" d="M0 0h38v38H0z"/></clipPath></defs></svg>