<svg width="38" height="39" fill="none" xmlns="http://www.w3.org/2000/svg"><g clip-path="url(#clip0)" fill="#000"><path d="M9.127 33.777a.829.829 0 00-.83.83v3.314a.829.829 0 001.658 0v-3.315a.829.829 0 00-.828-.829zm6.906 0a.829.829 0 00-.829.83v3.314a.829.829 0 001.658 0v-3.315a.829.829 0 00-.83-.829zm6.907 0a.829.829 0 00-.83.83v3.314a.829.829 0 001.658 0v-3.315a.829.829 0 00-.829-.829zM5.673 27.81a.829.829 0 00-.828.83v3.314a.829.829 0 001.657 0V28.64a.829.829 0 00-.829-.828zm6.907 0a.829.829 0 00-.829.83v3.314a.829.829 0 101.658 0V28.64a.829.829 0 00-.83-.828zm6.906 0a.829.829 0 00-.829.83v3.314a.829.829 0 001.658 0V28.64a.829.829 0 00-.829-.828zm6.906 0a.829.829 0 00-.828.83v3.314a.829.829 0 001.657 0V28.64a.829.829 0 00-.829-.828zM34.764.75a.829.829 0 00-.83.829v.829h-7.541c-6.622 0-12.058 5.17-12.487 11.685h-.752a.829.829 0 00-.829.83v2.235a13.514 13.514 0 00-8.834 8h-.254a.829.829 0 000 1.658H28.83a.829.829 0 000-1.658h-.255a13.513 13.513 0 00-8.834-8v-2.236a.829.829 0 00-.829-.829h-.682c.416-4.136 3.918-7.376 8.163-7.376h7.542v.829a.829.829 0 001.657 0V1.579a.829.829 0 00-.828-.829zm-16.68 15v1.244h-4.101v-1.243h4.1zm8.688 9.408H5.295c1.493-3.204 4.409-5.643 7.855-6.507h5.766c3.447.864 6.363 3.303 7.856 6.507zm-.38-20.098c-5.158 0-9.404 3.981-9.826 9.033h-.999c.425-5.6 5.118-10.028 10.826-10.028h7.542v.995h-7.542z"/></g><defs><clipPath id="clip0"><path fill="#fff" transform="translate(0 .75)" d="M0 0h38v38H0z"/></clipPath></defs></svg>