<svg width="100" height="90" fill="none" xmlns="http://www.w3.org/2000/svg"><path d="M36.764.01c-.236.011-.47.064-.687.156l-35 16c-1.126.512-1.393 2.15-.688 3.125l10.875 12.72L.39 44.697c-.654.919-.438 2.612.688 3.125L11.92 52.79v19.201c.006.764.49 1.503 1.188 1.813l35.969 16c.51.226 1.115.226 1.625 0l36.03-16a2.048 2.048 0 001.188-1.813v-19.2l10.844-4.97c1.125-.512 1.494-2.187.688-3.124L88.577 32.01l10.875-12.719c.806-.937.437-2.613-.688-3.125l-35-16a2.011 2.011 0 00-1-.156 2.023 2.023 0 00-1.312.625L49.92 13.041 38.39.635A2.032 2.032 0 0036.763.01zm-.312 4.406l10.093 10.875-32.062 14.282L5.17 18.729 36.452 4.416zm26.937 0L94.67 18.73l-9.312 10.844L53.295 15.29 63.39 4.416zM49.92 18.198L80.983 32.01 49.92 45.791l-31.062-13.78L49.92 18.196zM14.483 34.416l32.062 14.282-10.093 10.875L5.17 45.26l9.313-10.844zm70.875 0L94.67 45.26 63.39 59.573 53.294 48.698l32.063-14.282zM47.92 53.104v31.794l-32-14.218V54.604l20.157 9.219c.764.35 1.745.152 2.312-.47l9.531-10.25zm4 0l9.532 10.25c.567.621 1.548.82 2.312.469l20.156-9.22V70.68l-32 14.187V53.104z" fill="#fff"/><path d="M54.02 24.707v11.608a1.05 1.05 0 11-2.1 0V24.707l-2.485 2.486a1 1 0 11-1.414-1.414l4.242-4.243a1 1 0 011.415 0l4.242 4.243a1 1 0 01-1.414 1.414l-2.485-2.486zM43.436 36.75V25.142a1.05 1.05 0 112.1 0V36.75l2.486-2.485a1 1 0 011.414 1.414l-4.243 4.243a1 1 0 01-1.414 0l-4.242-4.243a1 1 0 011.414-1.414l2.485 2.485z" fill="#fff"/></svg>