<svg width="20" height="18" fill="none" xmlns="http://www.w3.org/2000/svg"><path d="M13.368 1.5H6.632c-2.738 0-4.965 2.005-4.965 4.469v6.062c0 2.464 2.227 4.469 4.965 4.469h6.736c2.738 0 4.965-2.005 4.965-4.469V5.97c0-2.464-2.227-4.469-4.965-4.469zm3.289 10.531c0 1.635-1.473 2.96-3.289 2.96H6.632c-1.816 0-3.289-1.325-3.289-2.96V5.97c0-1.635 1.473-2.96 3.289-2.96h6.736c1.816 0 3.289 1.325 3.289 2.96v6.062z" fill="#212326"/><path d="M10 5.25C7.702 5.25 5.833 6.932 5.833 9s1.87 3.75 4.167 3.75c2.297 0 4.167-1.682 4.167-3.75S12.297 5.25 10 5.25zm0 6.041c-1.406 0-2.546-1.026-2.546-2.291 0-1.266 1.14-2.291 2.546-2.291S12.546 7.735 12.546 9s-1.14 2.291-2.546 2.291zM14.167 6c.46 0 .833-.336.833-.75s-.373-.75-.833-.75c-.46 0-.834.336-.834.75s.373.75.834.75z" fill="#212326"/></svg>