<svg width="82" height="86" fill="none" xmlns="http://www.w3.org/2000/svg"><path d="M52.987 78.05v-.9c0-.1-.1-.2-.1-.3l-11-24.7c-.5-1-1.7-1.5-2.7-1-1 .5-1.5 1.7-1 2.7l10.6 23.9-1.5 3.6-5.5-.7-2.7-6.1.8-3.4v-1.1c0-.1 0-.1-.1-.2 0-.1-.1-.1-.1-.2s-.1-.1-.1-.2l-.1-.1c0-.1-.1-.1-.2-.2l-.1-.1c-.1-.1-.1-.1-.2-.1h-.1l-3.2-1.8-5.2-11.8c0-.1-.1-.1-.1-.2s-.1-.1-.1-.2-.1-.1-.1-.2l-.1-.1s-.1-.1-.2-.1-.1-.1-.2-.1-.1-.1-.2-.1-.1-.1-.2-.1-.2-.1-.2-.1h-.1l-2.9-.5-2.2-5s0-.1-.1-.1c0-.1-.1-.1-.1-.2s-.1-.1-.1-.2l-.1-.1c0-.1-.1-.1-.2-.1l-.1-.1c-.1 0-.1-.1-.2-.1s-.1-.1-.2-.1-.1 0-.2-.1c-.1 0-.1 0-.2-.1h-.3c-5.3-.3-9.8-3.4-12-8.3-3.1-7 .1-15.1 7.1-18.3 3.1-1.4 1.4-4.9-1.7-3.7-9.3 3.5-13.2 14.7-9.2 23.7 2.6 5.8 8 9.8 14.2 10.6l2.2 4.9c.1.1.1.3.2.4l.1.1.2.2.1.1c.1.1.2.1.3.2 0 0 .1 0 .1.1.1.1.3.1.4.1l2.9.5 5.1 11.4c.1.2.2.3.3.5l.1.1.4.4 2.4 1.4-.6 2.6v.9c0 .1.1.2.1.4l3.5 7.8c.1.1.2.3.2.4l.1.1.2.2.1.1c.1.1.2.1.3.2h.1c.1.1.3.1.5.1l8.2 1h.7c.1 0 .1 0 .2-.1.1 0 .1 0 .2-.1.1 0 .1-.1.2-.1s.1-.1.2-.1.1-.1.2-.1l.1-.1c.1-.1.1-.1.1-.2l.1-.1c0-.1.1-.1.1-.2 0 0 0-.1.1-.1l2.4-5.9c0-.1 0-.1.1-.2l.3-.3z" fill="#fff"/><path d="M5.588 12.55c1.6-3.4 4.4-6.1 7.9-7.4 3.5-1.3 7.4-1.2 10.8.4 3.4 1.6 6.1 4.4 7.4 7.9 1.3 3.5 1.2 7.4-.4 10.8-.5 1.1 0 2.4 1.1 2.9.3.1.6.2.9.2.8 0 1.6-.5 2-1.3 2-4.5 2.2-9.5.5-14.1-1.7-4.6-5.1-8.3-9.6-10.3s-9.5-2.2-14.2-.5c-4.6 1.7-8.3 5.1-10.3 9.6-1.5 3.2-2 6.7-1.5 10.1.2 1.2 1.2 2 2.4 1.8 1.2-.2 2-1.2 1.8-2.4-.3-2.6.1-5.2 1.2-7.7z" fill="#fff"/><path d="M81.588 61.55v-.3c0-.1 0-.2-.1-.2v-.1c0-.1-.1-.2-.1-.3l-.1-.1c-.1-.1-.1-.2-.2-.2l-26.9-26.9-.1-.1c.6-2.3.7-4.8.3-7.4-1.2-6.7-5.9-12.1-12.5-14.1-1.1-.3-2.2.3-2.6 1.4-.3 1.1.3 2.2 1.4 2.6 5 1.5 8.7 5.7 9.6 10.9.5 2.7.1 5.4-.9 7.8l3 3 25.1 25-.1 3.9-5.4 1.4-4.7-4.7-.5-3.5v-.1c0-.1 0-.1-.1-.2 0-.1 0-.1-.1-.2 0-.1-.1-.1-.1-.2s-.1-.1-.1-.2-.1-.1-.1-.1c0-.1-.1-.1-.1-.2l-.1-.1c-.1 0-.1-.1-.2-.1 0 0-.1-.1-.2-.1s-.1-.1-.2-.1c0 0-.1 0-.2-.1-.1 0-.2 0-.2-.1h-.1l-3.5-.5-9.1-9.2-.1-.1c-.1 0-.1-.1-.2-.1s-.1-.1-.2-.1-.1-.1-.2-.1-.1 0-.2-.1c-.1 0-.1 0-.2-.1h-.8l-2.8.6-3.1-3-3-3c-.8.3-1.7.6-2.6.7-7.5 1.3-14.8-3.8-16.1-11.4-.9-5 1-10 4.9-13.2.9-.7 1-2 .3-2.9-.7-.9-2-1-2.9-.3-5 4.1-7.5 10.7-6.4 17.1 1.7 9.8 11.1 16.3 20.8 14.6.3 0 .5-.1.8-.2.1.2.2.4.4.5l4.7 4.7c.1.1.2.2.4.3 0 0 .1 0 .1.1.1.1.2.1.3.1h.1c.1 0 .2 0 .3.1h.5l2.9-.5 8.8 8.8c.1.1.3.2.4.3 0 0 .1 0 .1.1.2.1.4.1.5.2l2.8.4.4 2.6c0 .2.1.4.2.6 0 0 0 .1.1.1.1.2.2.3.3.5l6 6c.1.1.2.2.4.3 0 0 .1 0 .1.1.1.1.2.1.3.1h.1c.1 0 .2 0 .4.1h.1c.2 0 .3 0 .5-.1l8-2h.1c.1 0 .1 0 .2-.1.1 0 .1-.1.2-.1s.1-.1.2-.1.1-.1.2-.1l.1-.1c0-.1.1-.1.1-.2l.1-.1c0-.1.1-.1.1-.2s.1-.1.1-.2 0-.1.1-.2v-.5l.1-6.3c.4-.1.4-.2.4-.2z" fill="#fff"/></svg>