<svg width="182" height="49" fill="none" xmlns="http://www.w3.org/2000/svg"><path d="M65.878 25.319c-.037.218-.147.327-.403.327H57.95c-.037 0-.074 0-.11.036-.037.037-.037.073-.037.11-.037.29-.037.69-.037 1.163.037.619.22 1.128.587 1.528.367.4.881.582 1.542.582.55-.036 1.064-.145 1.468-.436.44-.255.77-.655 1.028-1.128.146-.218.293-.29.477-.218l2.239.473c.22.072.293.218.22.436-.55 1.2-1.322 2.11-2.276 2.729-.99.654-2.128.945-3.45.945-1.688 0-2.936-.436-3.78-1.346-.844-.909-1.248-2.146-1.248-3.71 0-.618.074-1.455.22-2.51.11-1.128.258-2.11.478-2.947.367-1.382 1.1-2.51 2.165-3.346 1.064-.837 2.349-1.237 3.854-1.237 1.578 0 2.789.436 3.67 1.31.88.873 1.32 2.037 1.32 3.455a49.932 49.932 0 01-.403 3.784zm-6.606-5.093a2.74 2.74 0 00-.917 1.491l-.257 1.419c0 .109.036.145.146.145h4.478c.11 0 .147-.036.147-.145.037-.691.073-1.164.073-1.455 0-.619-.183-1.091-.55-1.492-.367-.363-.845-.545-1.432-.545-.697 0-1.21.182-1.688.582zm17.69-3.092a.335.335 0 01.257-.11h2.569c.22 0 .33.11.33.328L78.393 31.32a.586.586 0 01-.147.254.335.335 0 01-.256.11h-2.606c-.11 0-.184-.037-.22-.11-.074-.072-.074-.145-.074-.254l.147-1.128c.037-.073 0-.11-.037-.146-.036 0-.073 0-.11.073-.44.582-.917 1.019-1.505 1.31a4.158 4.158 0 01-1.871.436c-1.248 0-2.24-.4-2.936-1.2-.698-.8-1.028-1.892-1.028-3.238-.037-.473.037-1.527.257-3.128.22-1.637.404-2.728.624-3.274.33-1.31.954-2.328 1.835-3.128.88-.764 1.945-1.165 3.23-1.165 1.394 0 2.348.546 2.899 1.674.037.073.037.073.073.073.037 0 .074-.037.074-.146l.11-1.018c0-.037.036-.146.11-.182zm-.991 7.239c.147-1.164.22-2.037.22-2.656 0-.582-.183-1.091-.514-1.455-.33-.364-.807-.582-1.394-.582-.588 0-1.138.182-1.578.582-.44.4-.771.873-.918 1.455-.183.8-.33 1.674-.477 2.656-.11.982-.184 1.891-.184 2.655 0 .619.184 1.128.551 1.492.367.4.844.582 1.431.582.587 0 1.101-.182 1.542-.582.44-.4.697-.873.88-1.492.147-.655.294-1.528.441-2.655zm14.46-7.203c.147.073.184.218.11.436l-.807 2.62c-.074.218-.184.29-.404.218-.257-.11-.514-.146-.844-.146-.11 0-.294.037-.587.073-.66.073-1.211.364-1.725.873-.477.546-.77 1.2-.881 2.001l-1.028 8.112a.585.585 0 01-.146.255.335.335 0 01-.257.109h-2.57c-.22 0-.33-.11-.33-.328l1.725-13.968a.585.585 0 01.147-.255.335.335 0 01.257-.11h2.606c.11 0 .183.037.22.11a.519.519 0 01.073.255l-.146 1.236c-.037.073 0 .11.036.146.037 0 .074 0 .11-.073.808-1.2 1.799-1.819 3.047-1.819.623-.072 1.064.037 1.394.255zm0 14.405c-.073-.072-.073-.145-.073-.254l2.422-19.426c0-.109.037-.182.11-.254a.334.334 0 01.257-.11h2.57c.11 0 .183.037.22.11.073.072.073.145.073.254l-2.422 19.426a.585.585 0 01-.147.254.334.334 0 01-.257.11h-2.57c-.036 0-.11-.037-.183-.11zm4.771 5.493l.257-2.073a.585.585 0 01.147-.255c.073-.073.147-.109.22-.109.698-.036 1.248-.11 1.652-.255.403-.145.77-.436 1.064-.836.294-.4.55-1.019.808-1.783.036-.036.036-.109.036-.182l-2.312-14.223v-.073c0-.109.037-.182.11-.255a.334.334 0 01.257-.109h2.789c.184 0 .294.11.331.291l1.027 9.822c0 .073.037.11.074.11.036 0 .073-.037.073-.11l3.487-9.785c.11-.218.22-.328.403-.328l2.716.037c.11 0 .184.036.22.109.037.073.037.145 0 .255l-6.239 15.096c-.587 1.346-1.137 2.364-1.615 3.056-.513.654-1.137 1.164-1.908 1.418-.77.255-1.835.437-3.193.437h-.183c-.184.073-.22-.036-.22-.255zm37.105-19.243c.624.691.917 1.673.917 2.946 0 .437-.036.8-.073 1.019l-1.174 9.567a.592.592 0 01-.147.255.336.336 0 01-.257.109h-2.532c-.111 0-.184-.037-.221-.11-.073-.072-.073-.145-.073-.254l1.138-9.094c.036-.11.036-.255.036-.473 0-.655-.146-1.2-.477-1.564-.293-.364-.734-.546-1.321-.546-.661 0-1.211.218-1.652.691-.44.473-.697 1.091-.807 1.855l-1.138 9.131a.58.58 0 01-.146.255.336.336 0 01-.257.109h-2.569c-.111 0-.184-.037-.221-.11-.073-.072-.073-.145-.073-.254l1.101-9.094c.037-.11.037-.291.037-.546 0-.618-.147-1.128-.477-1.491-.294-.364-.734-.546-1.285-.546-.661 0-1.211.218-1.652.691-.44.473-.697 1.091-.807 1.855l-1.138 9.131a.58.58 0 01-.146.255.336.336 0 01-.257.109h-2.533c-.22 0-.33-.11-.33-.328l1.725-13.968a.583.583 0 01.147-.255.333.333 0 01.257-.11h2.569c.11 0 .183.037.22.11a.52.52 0 01.073.255l-.073.727c-.037.073 0 .11.037.11.036 0 .073 0 .11-.037.88-.91 1.982-1.346 3.303-1.346.807 0 1.505.182 2.055.546.551.363.954.873 1.211 1.491.074.11.147.073.22-.073.514-.69 1.101-1.2 1.799-1.491a4.895 4.895 0 012.128-.473c1.248-.11 2.129.255 2.753.946zm11.818-.691a.333.333 0 01.257-.11h2.569c.22 0 .33.11.33.328l-1.725 13.969a.583.583 0 01-.147.254.334.334 0 01-.257.11h-2.606c-.11 0-.183-.037-.22-.11-.073-.072-.073-.145-.073-.254l.147-1.128c.036-.073 0-.11-.037-.146-.037 0-.073 0-.11.073-.441.582-.918 1.019-1.505 1.31a4.158 4.158 0 01-1.872.436c-1.247 0-2.238-.4-2.936-1.2-.697-.8-1.027-1.892-1.027-3.238-.037-.473.036-1.527.257-3.128.22-1.637.403-2.728.624-3.274.33-1.31.954-2.328 1.835-3.128.88-.764 1.945-1.165 3.229-1.165 1.395 0 2.349.546 2.9 1.674.036.073.036.073.073.073s.073-.037.073-.146l.111-1.018c0-.037.036-.146.11-.182zm-.991 7.239c.147-1.164.22-2.037.22-2.656 0-.582-.184-1.091-.514-1.455-.33-.364-.807-.582-1.395-.582-.587 0-1.137.182-1.578.582-.44.4-.77.873-.917 1.455-.184.8-.331 1.674-.477 2.656-.11.982-.184 1.891-.184 2.655 0 .619.184 1.128.551 1.492.367.4.844.582 1.431.582.587 0 1.101-.182 1.541-.582.441-.4.698-.873.881-1.492.147-.655.294-1.528.441-2.655zm13.322-4.948a.334.334 0 01-.257.11h-2.275c-.037 0-.074 0-.11.036-.037.036-.037.073-.037.109l-.881 7.203c-.036.145-.036.29-.036.509 0 .51.11.873.367 1.091.256.219.623.328 1.101.291h.513c.11 0 .184.037.221.11.073.072.073.145.073.254l-.294 2.183a.325.325 0 01-.11.254.591.591 0 01-.257.146h-1.211c-1.248 0-2.202-.182-2.826-.582-.624-.4-.954-1.128-.954-2.183 0-.145.037-.436.073-.8l1.028-8.476c.037-.11 0-.145-.11-.145h-1.321c-.11 0-.184-.037-.22-.11-.074-.072-.074-.145-.074-.254l.22-1.855a.592.592 0 01.147-.255.336.336 0 01.257-.11h1.321c.11 0 .147-.036.147-.145l.404-3.274a.574.574 0 01.147-.254.333.333 0 01.257-.11h2.495c.11 0 .184.037.22.11.074.072.074.145.074.254l-.404 3.274c0 .11.037.146.11.146h2.276c.11 0 .183.036.22.109a.519.519 0 01.073.255l-.22 1.855c-.037.109-.073.218-.147.254zm2.202 11.314c-.881-.8-1.321-1.892-1.358-3.274-.073-.837 0-1.892.184-3.165.147-1.128.33-2.183.624-3.128a5.802 5.802 0 012.165-3.202c1.064-.8 2.349-1.2 3.854-1.2 1.431 0 2.605.364 3.523 1.128.881.764 1.358 1.746 1.431 2.983 0 .327 0 .581-.036.727 0 .218-.11.327-.331.364l-2.569.254h-.073c-.22 0-.294-.109-.257-.327 0-.218 0-.364-.037-.437a1.967 1.967 0 00-.587-1.31c-.367-.363-.844-.545-1.431-.545-.624 0-1.175.182-1.652.582-.44.4-.771.873-.917 1.528-.147.51-.294 1.383-.477 2.583-.111 1.128-.147 2-.147 2.655 0 .619.183 1.128.514 1.492.33.364.844.546 1.468.546.623 0 1.137-.182 1.614-.546a2.71 2.71 0 00.881-1.346l.074-.291a.581.581 0 01.146-.255c.074-.072.147-.072.257-.072l2.533.218c.22.036.33.145.257.364l-.074.473c-.33 1.31-1.027 2.328-2.128 3.128-1.101.8-2.386 1.164-3.891 1.164-1.504 0-2.679-.291-3.56-1.091z" fill="#212326"/><path d="M158.658 30.739c-.881-.8-1.321-1.892-1.358-3.274-.073-.837 0-1.892.184-3.165.147-1.128.33-2.183.624-3.128a5.802 5.802 0 012.165-3.202c1.064-.8 2.349-1.2 3.854-1.2 1.431 0 2.605.364 3.523 1.128.881.764 1.358 1.746 1.431 2.983 0 .327 0 .581-.036.727 0 .218-.11.327-.331.364l-2.569.254h-.073c-.22 0-.294-.109-.257-.327 0-.218 0-.364-.037-.437a1.967 1.967 0 00-.587-1.31c-.367-.363-.844-.545-1.431-.545-.624 0-1.175.182-1.652.582-.44.4-.771.873-.917 1.528-.147.51-.294 1.383-.477 2.583-.111 1.128-.147 2-.147 2.655 0 .619.183 1.128.514 1.492.33.364.844.546 1.468.546.623 0 1.137-.182 1.614-.546a2.71 2.71 0 00.881-1.346l.074-.291a.581.581 0 01.146-.255c.074-.072.147-.072.257-.072l2.533.218c.22.036.33.145.257.364l-.074.473c-.33 1.31-1.027 2.328-2.128 3.128-1.101.8-2.386 1.164-3.891 1.164-1.504 0-2.679-.291-3.56-1.091zm22.351-12.878c.661.691.991 1.71.991 2.947 0 .182-.037.473-.073.945l-1.175 9.604a.573.573 0 01-.147.255.332.332 0 01-.256.109h-2.606c-.11 0-.184-.037-.22-.11-.074-.072-.074-.145-.074-.254l1.138-9.13c.037-.11.037-.292.037-.51 0-.618-.147-1.128-.478-1.491-.33-.364-.77-.546-1.357-.546-.661 0-1.248.218-1.725.691-.477.473-.734 1.091-.844 1.892l-1.138 9.094a.592.592 0 01-.147.255.334.334 0 01-.257.109h-2.569c-.22 0-.33-.11-.33-.328l2.422-19.425a.583.583 0 01.147-.255.334.334 0 01.257-.109h2.569c.11 0 .183.037.22.11.073.072.073.145.073.254l-.77 6.184c-.037.073 0 .11.036.11.037.036.074 0 .11-.073.881-.91 1.946-1.383 3.267-1.383 1.321-.036 2.275.328 2.899 1.055z" fill="#212326"/><path d="M8.221 48.236S5.946 35.14 17.58 32.776c0 0 3.597 5.238 0 8.912-1.909 1.965-4.368 1.746-9.359 6.548z" fill="#9AD8D8"/><path d="M22.314 49c-1.138 0-2.275-.255-3.156-.764L3.156 39.07C1.395 38.05 0 35.686 0 33.649V15.35c0-2.037 1.395-4.438 3.156-5.456L19.158.764c1.761-1.019 4.55-1.019 6.35 0l15.964 9.13c1.762 1.02 3.156 3.42 3.156 5.42v18.298c0 2.038-1.394 4.438-3.156 5.42L25.47 48.164c-.88.582-2.018.837-3.156.837zm0-47.4c-.88 0-1.725.182-2.385.546l-15.965 9.13c-1.285.729-2.386 2.584-2.386 4.075V33.65c0 1.455 1.101 3.346 2.386 4.074l16.001 9.13c1.285.728 3.45.728 4.735 0l16.001-9.13c1.285-.727 2.386-2.583 2.386-4.074v-18.3c0-1.455-1.101-3.347-2.386-4.074L24.7 2.147c-.66-.365-1.505-.546-2.386-.546z" fill="#FE5D1E"/><path d="M34.132 19.68S23.122 7.02 17.36 22.954c0 0-14.387 7.093-13.36 23.718 0 0 3.89-3.929 11.084-5.893 5.909-1.6 10.497-3.965 11.45-9.75 1.175-7.13 3.524-10.876 7.598-11.349z" fill="#5ABFC5"/></svg>