<svg width="38" height="39" fill="none" xmlns="http://www.w3.org/2000/svg"><path d="M31.763 6.804h-1.855c-.277 0-.452.175-.452.369v5.998c0 .25.295.379.6.379.295 0 .6-.13.6-.379v-2.14h1.033c1.218 0 2.169-.582 2.169-2.096V8.88c0-1.513-.923-2.076-2.095-2.076zm.895 2.224c0 .72-.369 1.061-.969 1.061h-1.033V7.856h1.033c.6 0 .97.341.97 1.061v.11zm-6.019 15.095a8.897 8.897 0 01-.687-.42l-3.58-2.419a6.525 6.525 0 00-3.667-1.122h-6.572a6.507 6.507 0 00-4.622 1.91 8.773 8.773 0 01-2.15 1.573c-.47.244-.76.722-.76 1.25a1.41 1.41 0 001.408 1.409h2.24a.541.541 0 000-1.083H6.01a.326.326 0 01-.15-.615 9.854 9.854 0 002.416-1.768 5.431 5.431 0 013.858-1.593h1.472v3.976h-1.799a.541.541 0 000 1.082H26.65a.808.808 0 00.807-.806 1.57 1.57 0 00-.818-1.374zM14.687 25.22v-3.976h4.018c1.095 0 2.153.324 3.06.936l3.58 2.42c.25.167.509.326.772.47a.504.504 0 01.168.15H14.687zm1.342 1.906h-1.672a.541.541 0 100 1.083h1.672a.541.541 0 000-1.083z" fill="#000"/><path d="M37.533 26.672l-.171-.284a4.455 4.455 0 00-2.941-2.066l-1.398-.277V16.96h3.617c.745 0 1.35-.606 1.35-1.35V5.066c0-.744-.605-1.35-1.35-1.35H26.097c-.744 0-1.35.606-1.35 1.35v4a.541.541 0 101.083 0v-4c0-.147.12-.268.268-.268H36.64c.148 0 .268.12.268.268V15.61c0 .148-.12.268-.268.268H26.097a.268.268 0 01-.267-.268v-3.024a.541.541 0 00-1.083 0v3.024c0 .745.606 1.35 1.35 1.35H30.2v6.523l-.719-.143c-.991-.197-1.958-.796-2.599-1.229l-3.58-2.419a8.179 8.179 0 00-4.596-1.406h-6.572c-2.187 0-4.244.85-5.793 2.393a7.109 7.109 0 01-3.569 1.927l-.777.162A2.519 2.519 0 000 25.223v5.243c0 .625.37 1.194.94 1.448l2.157.958a3.58 3.58 0 003.525 2.91 3.58 3.58 0 003.455-2.615h17.978c.161.573.466 1.115.916 1.565a3.568 3.568 0 002.54 1.052c.959 0 1.86-.374 2.54-1.052.45-.45.754-.992.915-1.565h1.027A2.01 2.01 0 0038 31.159v-2.807a3.26 3.26 0 00-.467-1.68zm-6.252-9.711h.66v6.868l-.66-.131v-6.737zM8.396 33.966a2.492 2.492 0 01-1.774.735c-.67 0-1.3-.26-1.774-.735a2.512 2.512 0 01-.508-2.815l.01-.023a2.393 2.393 0 01.202-.352l.037-.052.044-.06.036-.046.055-.065.032-.036c.027-.031.056-.061.085-.09l.007-.008.017-.017.075-.071.02-.018.078-.066.007-.006a2.513 2.513 0 013.158.003l.003.003.083.07.014.014a2.477 2.477 0 01.188.188l.039.046.047.056a2.496 2.496 0 01.135.184l.01.014a2.513 2.513 0 01-.326 3.147zm24.889 0a2.493 2.493 0 01-1.774.735c-.67 0-1.3-.26-1.774-.735a2.513 2.513 0 01-.181-3.346l.046-.055.04-.046a2.492 2.492 0 011.869-.835 2.492 2.492 0 011.868.835l.04.046a2.44 2.44 0 01.181.24l.01.014a2.513 2.513 0 01-.325 3.147zm3.632-2.806c0 .51-.415.924-.925.924h-.89a3.546 3.546 0 00-.798-2.148l-.01-.013a3.975 3.975 0 00-.095-.111l-.025-.028a3.493 3.493 0 00-.106-.112l-.018-.019a3.568 3.568 0 00-2.54-1.052 3.566 3.566 0 00-2.54 1.052l-.017.019a3.627 3.627 0 00-.106.112l-.024.027a3.632 3.632 0 00-.096.112l-.01.012a3.547 3.547 0 00-.797 2.15H10.213a3.547 3.547 0 00-.8-2.152l-.007-.01a3.775 3.775 0 00-.1-.117l-.02-.021a3.599 3.599 0 00-.688-.591 3.588 3.588 0 00-1.976-.591 3.58 3.58 0 00-2.656 1.173l-.033.037a3.74 3.74 0 00-.19.233l-.024.032c-.067.093-.13.188-.188.286l-.005.009a3.545 3.545 0 00-.082.146l-.002.005a3.53 3.53 0 00-.374 1.15l-1.687-.75a.502.502 0 01-.298-.458v-5.243c0-.67.476-1.258 1.133-1.395l.777-.163a8.19 8.19 0 004.111-2.219 7.08 7.08 0 015.03-2.078h6.572c1.427 0 2.806.423 3.989 1.222l3.58 2.418c.719.486 1.81 1.158 2.994 1.394l4.941.982a3.37 3.37 0 012.225 1.563l.17.284c.205.338.312.726.312 1.12v2.809z" fill="#000"/><path d="M7.784 31.03a1.633 1.633 0 00-1.162-.481c-.439 0-.852.17-1.162.481-.31.31-.481.723-.481 1.162a1.638 1.638 0 001.643 1.644 1.645 1.645 0 001.162-2.806zm-.764 1.56a.557.557 0 01-.794 0 .557.557 0 010-.793.557.557 0 01.794 0 .562.562 0 010 .793zm25.653-1.56a1.632 1.632 0 00-1.162-.481 1.645 1.645 0 000 3.287c.439 0 .852-.171 1.162-.481.31-.31.481-.724.481-1.163 0-.439-.17-.851-.48-1.162zm-.766 1.559a.557.557 0 01-.793 0 .561.561 0 11.793 0z" fill="#000"/></svg>