<svg width="18" height="18" fill="none" xmlns="http://www.w3.org/2000/svg"><path d="M15.316 5.02c.74-.433 1.23-1.025 1.471-1.776a8.213 8.213 0 01-2.155.751c-.644-.66-1.46-.995-2.438-.995-.956 0-1.764.32-2.423.941-.655.626-.986 1.387-.986 2.275 0 .27.036.51.107.715C6.072 6.84 3.74 5.725 1.9 3.581c-.311.525-.467 1.059-.467 1.612 0 1.136.503 2.036 1.508 2.697-.573-.046-1.078-.184-1.508-.41 0 .81.25 1.489.751 2.085a3.35 3.35 0 001.94 1.127c-.287.07-.588.103-.898.103-.286 0-.489-.022-.609-.072A3.09 3.09 0 003.8 12.33c.573.413 1.232.63 1.973.65-1.22.912-2.617 1.363-4.196 1.363-.387 0-.661-.005-.827-.033 1.555.962 3.287 1.44 5.203 1.44 1.96 0 3.693-.473 5.2-1.42 1.508-.941 2.621-2.103 3.336-3.47.719-1.366 1.074-2.787 1.074-4.272V6.18a6.957 6.957 0 001.687-1.677 7.752 7.752 0 01-1.934.518z" fill="#212326"/></svg>