<svg width="20" height="20" fill="none" xmlns="http://www.w3.org/2000/svg"><path d="M13.368 1.667H6.632a4.97 4.97 0 00-4.965 4.965v6.736a4.97 4.97 0 004.965 4.965h6.736a4.97 4.97 0 004.965-4.965V6.632a4.97 4.97 0 00-4.965-4.965zm3.289 11.701a3.288 3.288 0 01-3.289 3.289H6.632a3.288 3.288 0 01-3.289-3.289V6.632a3.288 3.288 0 013.289-3.289h6.736a3.288 3.288 0 013.289 3.289v6.736z" fill="#fff"/><path d="M10 5.833A4.171 4.171 0 005.833 10 4.171 4.171 0 0010 14.167 4.171 4.171 0 0014.167 10 4.171 4.171 0 0010 5.833zm0 6.713a2.546 2.546 0 110-5.092 2.546 2.546 0 010 5.092zm4.167-5.879a.833.833 0 100-1.667.833.833 0 000 1.667z" fill="#fff"/></svg>