<svg width="20" height="20" fill="none" xmlns="http://www.w3.org/2000/svg"><path d="M17.018 5.578c.823-.482 1.367-1.139 1.634-1.974-.8.405-1.598.682-2.394.835-.716-.733-1.622-1.106-2.71-1.106-1.062 0-1.959.355-2.691 1.046-.728.696-1.096 1.541-1.096 2.528 0 .3.04.567.12.794C6.746 7.6 4.153 6.361 2.11 3.98c-.346.583-.519 1.176-.519 1.79 0 1.263.56 2.263 1.675 2.998-.636-.052-1.197-.205-1.675-.456 0 .901.278 1.654.835 2.317.56.656 1.277 1.074 2.154 1.252a4.205 4.205 0 01-.997.115c-.318 0-.543-.025-.676-.08.234.734.676 1.33 1.315 1.786a3.84 3.84 0 002.191.72c-1.356 1.014-2.907 1.516-4.662 1.516-.43 0-.734-.006-.919-.037 1.729 1.07 3.652 1.6 5.781 1.6 2.179 0 4.103-.526 5.779-1.578 1.675-1.046 2.912-2.336 3.706-3.855.799-1.518 1.194-3.097 1.194-4.747v-.454c.772-.553 1.396-1.176 1.874-1.864a8.613 8.613 0 01-2.15.576z" fill="#fff"/></svg>