<svg width="48" height="48" fill="none" xmlns="http://www.w3.org/2000/svg"><path d="M47.434 25.994L41.826 12.38a.528.528 0 00-.693-.284l-6.29 2.606a.518.518 0 00-.284.676l.333.808-1.754.702-1.807-1.233a.527.527 0 00-.22-.087l-9.742-1.493a2.474 2.474 0 00-1.886.497l-1.882 1.55-4.482.085.27-.58a.517.517 0 00-.252-.687L6.97 12.05a.533.533 0 00-.705.253L.049 25.649a.517.517 0 00.252.688l6.165 2.89a.533.533 0 00.706-.253l.551-1.184 14.893 8.855a2.328 2.328 0 002.66-.197l.886-.722c.328.194.693.297 1.06.297a2.076 2.076 0 002.036-1.665 2.262 2.262 0 002.706-.241c.378-.343.613-.793.696-1.286a2.26 2.26 0 001.11.301c.561 0 1.123-.207 1.564-.623a2.259 2.259 0 00.407-2.787l3.9-2.001.524 1.27a.529.529 0 00.693.284l6.29-2.606a.516.516 0 00.286-.675zM6.437 28.06l-5.213-2.443L7 13.217l5.213 2.443-5.776 12.4zm28.17 3.697c-.48.45-1.22.443-1.687-.015l-.777-.766c-.006-.005-.013-.007-.019-.012-.029-.033-.052-.07-.083-.101l-3.567-3.564a.532.532 0 00-.746-.004.515.515 0 00-.005.736l3.568 3.563c.237.237.363.553.355.889a1.204 1.204 0 01-.395.869 1.18 1.18 0 01-1.622-.021l-.982-.914L26.077 30a.534.534 0 00-.745.017.516.516 0 00.017.736l2.573 2.42.002.002a1.049 1.049 0 01-.046 1.568c-.36.3-.877.317-1.233.06l-2.84-2.292a.532.532 0 00-.741.073.515.515 0 00.074.732l2.172 1.754-.706.576c-.41.335-.99.377-1.443.108L8.167 26.838l4.463-9.58 3.676-.07-1.703 1.403a.516.516 0 00-.078.72c1.108 1.4 2.917 1.868 4.435 1.114l1.91-1.14 4.085.73 9.69 9.971c.234.24.358.558.35.895a1.233 1.233 0 01-.389.876zm.447-2.854l-9.456-9.73a.532.532 0 00-.286-.153l-4.45-.795a.535.535 0 00-.368.067l-2.043 1.223c-.89.439-1.961.238-2.748-.474l4.444-3.66c.3-.233.686-.335 1.06-.276l9.624 1.474 1.942 1.325c.145.1.334.12.498.055l2.018-.809 3.955 9.604-4.19 2.149zm5.889-.79l-5.21-12.65 5.316-2.204 5.21 12.65-5.316 2.204z" fill="url(#paint0_linear)"/><defs><linearGradient id="paint0_linear" x1="0" y1="12" x2="49.407" y2="16.719" gradientUnits="userSpaceOnUse"><stop stop-color="#FE5D1E"/><stop offset="1" stop-color="#FFA53B"/></linearGradient></defs></svg>