<svg width="48" height="48" fill="none" xmlns="http://www.w3.org/2000/svg"><path d="M17.6 40a9.554 9.554 0 006.4-2.464 9.593 9.593 0 0010.763 1.412 9.582 9.582 0 00-1.85-17.791 9.59 9.59 0 00-3.1-11.198 9.604 9.604 0 00-11.625 0 9.59 9.59 0 00-3.1 11.198A9.588 9.588 0 0017.6 40zm4.267-9.594a8.473 8.473 0 01.674-3.321 8.716 8.716 0 002.918 0A8.49 8.49 0 0124 36.028a8.48 8.48 0 01-2.133-5.622zm3.078-4.317a8.084 8.084 0 01-1.89 0c.274-.464.59-.9.945-1.305.356.404.672.841.945 1.305zm-.191-2.057a8.428 8.428 0 016.591-2.1 8.553 8.553 0 01-5.284 3.946 9.613 9.613 0 00-1.307-1.848v.002zm-2.814 1.85a8.552 8.552 0 01-5.284-3.95 8.429 8.429 0 016.591 2.095 9.626 9.626 0 00-1.307 1.853v.002zm16.993 4.524a8.514 8.514 0 01-5.023 7.779 8.522 8.522 0 01-9.156-1.403 9.518 9.518 0 001.76-9.919 9.633 9.633 0 005.946-4.723 8.538 8.538 0 016.473 8.266zM24 9.086a8.534 8.534 0 017.112 3.816 8.524 8.524 0 01.747 8.033A9.393 9.393 0 0024 23.275a9.393 9.393 0 00-7.858-2.34 8.524 8.524 0 01.747-8.033A8.534 8.534 0 0124 9.086zM15.54 22.14a9.634 9.634 0 005.947 4.723 9.516 9.516 0 001.76 9.92 8.527 8.527 0 01-9.61 1.171A8.517 8.517 0 0115.54 22.14z" fill="url(#paint0_linear)"/><defs><linearGradient id="paint0_linear" x1="8" y1="8" x2="41.523" y2="9.684" gradientUnits="userSpaceOnUse"><stop stop-color="#FE5D1E"/><stop offset="1" stop-color="#FFA53B"/></linearGradient></defs></svg>