<svg width="48" height="48" fill="none" xmlns="http://www.w3.org/2000/svg"><path d="M38.537 7.778a3.462 3.462 0 00-3.026 5.146l-3.74 3.134a3.46 3.46 0 00-5.625.19l-4.224-2.722a3.464 3.464 0 10-6.457 1.408l-4.328 4.23a3.473 3.473 0 10.8.601l4.141-4.047a3.459 3.459 0 005.595-1.175l4.044 2.606a3.464 3.464 0 106.547-.211l3.848-3.226a3.463 3.463 0 102.425-5.934zM9.485 24.68a2.474 2.474 0 110-4.948 2.474 2.474 0 010 4.948zm8.988-8.988a2.474 2.474 0 110-4.947 2.474 2.474 0 010 4.947zm10.553 4.948a2.474 2.474 0 110-4.947 2.474 2.474 0 010 4.947zm9.51-6.926a2.474 2.474 0 110-4.947 2.474 2.474 0 010 4.947z" fill="url(#paint0_linear)"/><path d="M22.525 22.94a.495.495 0 00-.494-.495h-5.114a.495.495 0 00-.495.494v16.825c0 .273.222.495.495.495h5.113a.495.495 0 00.495-.495V22.939zm-5.113.494h4.124V39.27h-4.124V23.434z" fill="url(#paint1_linear)"/><path d="M13.04 30.61a.495.495 0 00-.494-.495H7.433a.495.495 0 00-.495.494v9.155c0 .273.222.495.495.495h5.113a.495.495 0 00.495-.495v-9.155zm-1.071 8.659H7.928v-8.165h4.04v8.165z" fill="url(#paint2_linear)"/><path d="M32.01 27.723a.495.495 0 00-.495-.495h-5.113a.495.495 0 00-.495.495v12.04c0 .274.222.496.495.496h5.113a.495.495 0 00.495-.495V27.723zm-5.113.495h4.123v11.05h-4.123v-11.05z" fill="url(#paint3_linear)"/><path d="M41.577 22.94a.495.495 0 00-.495-.495H35.97a.495.495 0 00-.495.494v16.825c0 .273.222.495.495.495h5.113a.495.495 0 00.495-.495V22.939zm-1.072 16.33h-4.041V23.433h4.041V39.27z" fill="url(#paint4_linear)"/><defs><linearGradient id="paint0_linear" x1="6.001" y1="7.778" x2="43.427" y2="11.557" gradientUnits="userSpaceOnUse"><stop stop-color="#FE5D1E"/><stop offset="1" stop-color="#FFA53B"/></linearGradient><linearGradient id="paint1_linear" x1="16.422" y1="22.445" x2="22.83" y2="22.555" gradientUnits="userSpaceOnUse"><stop stop-color="#FE5D1E"/><stop offset="1" stop-color="#FFA53B"/></linearGradient><linearGradient id="paint2_linear" x1="6.938" y1="30.114" x2="13.342" y2="30.308" gradientUnits="userSpaceOnUse"><stop stop-color="#FE5D1E"/><stop offset="1" stop-color="#FFA53B"/></linearGradient><linearGradient id="paint3_linear" x1="25.907" y1="27.228" x2="32.313" y2="27.379" gradientUnits="userSpaceOnUse"><stop stop-color="#FE5D1E"/><stop offset="1" stop-color="#FFA53B"/></linearGradient><linearGradient id="paint4_linear" x1="35.474" y1="22.445" x2="41.882" y2="22.555" gradientUnits="userSpaceOnUse"><stop stop-color="#FE5D1E"/><stop offset="1" stop-color="#FFA53B"/></linearGradient></defs></svg>