<svg width="38" height="39" viewBox="0 0 38 39" fill="none" xmlns="http://www.w3.org/2000/svg">
<g clip-path="url(#clip0)">
<path d="M35.2998 17.9206H34.9253V11.7294C34.9253 9.55833 33.1589 7.79199 30.988 7.79199H7.01203C4.84108 7.79199 3.07474 9.55833 3.07474 11.7294V17.9206H2.70005C1.2113 17.9206 0 19.1319 0 20.6208V24.6213C0 26.1102 1.2113 27.3215 2.70017 27.3215H6.03838V29.8625C6.03838 30.3289 6.41645 30.707 6.88283 30.707C7.3492 30.707 7.72727 30.3289 7.72727 29.8625V27.3215H30.2729V29.8625C30.2729 30.3289 30.6509 30.707 31.1173 30.707C31.5837 30.707 31.9617 30.3289 31.9617 29.8625V27.3215H35.2999C36.7888 27.3215 38.0001 26.1102 38.0001 24.6213V20.6208C38 19.1319 36.7887 17.9206 35.2998 17.9206ZM4.76363 11.7294C4.76363 10.4896 5.77214 9.48088 7.01203 9.48088H30.988C32.2277 9.48088 33.2364 10.4895 33.2364 11.7294V17.9206H32.1538V16.2249C32.1538 15.1435 31.2741 14.2638 30.1929 14.2638H21.5368C20.4553 14.2638 19.5755 15.1435 19.5755 16.2249V17.9206H18.4243V16.2249C18.4243 15.1435 17.5445 14.2638 16.463 14.2638H7.80713C6.72588 14.2638 5.84621 15.1435 5.84621 16.2249V17.9206H4.76363V11.7294ZM21.2644 17.9206V16.2249C21.2644 16.0773 21.3892 15.9527 21.5368 15.9527H30.1929C30.3404 15.9527 30.4649 16.0773 30.4649 16.2249V17.9206H21.2644ZM7.5351 17.9206V16.2249C7.5351 16.0773 7.65959 15.9527 7.80713 15.9527H16.4632C16.6108 15.9527 16.7356 16.0773 16.7356 16.2249V17.9206H7.5351ZM36.3111 24.6213C36.3111 25.1789 35.8574 25.6326 35.2998 25.6326H2.70017C2.1426 25.6326 1.68889 25.1789 1.68889 24.6213V20.6208C1.68889 20.0632 2.1426 19.6095 2.70017 19.6095H35.2998C35.8574 19.6095 36.3111 20.0632 36.3111 20.6208V24.6213Z" fill="#212326"/>
</g>
<defs>
<clipPath id="clip0">
<rect width="38" height="38" fill="white" transform="translate(0 0.25)"/>
</clipPath>
</defs>
</svg>
