<svg width="38" height="39" viewBox="0 0 38 39" fill="none" xmlns="http://www.w3.org/2000/svg">
<g clip-path="url(#clip0)">
<path d="M9.12663 33.7773C8.66898 33.7773 8.29785 34.1484 8.29785 34.6061V37.9212C8.29785 38.3789 8.66898 38.75 9.12663 38.75C9.58428 38.75 9.9554 38.3789 9.9554 37.9212V34.6061C9.9554 34.1484 9.58436 33.7773 9.12663 33.7773Z" fill="black"/>
<path d="M16.0329 33.7773C15.5752 33.7773 15.2041 34.1484 15.2041 34.6061V37.9212C15.2041 38.3789 15.5752 38.75 16.0329 38.75C16.4906 38.75 16.8617 38.3789 16.8617 37.9212V34.6061C16.8617 34.1484 16.4906 33.7773 16.0329 33.7773Z" fill="black"/>
<path d="M22.9391 33.7773C22.4815 33.7773 22.1104 34.1484 22.1104 34.6061V37.9212C22.1104 38.3789 22.4815 38.75 22.9391 38.75C23.3968 38.75 23.7679 38.3789 23.7679 37.9212V34.6061C23.7679 34.1484 23.3969 33.7773 22.9391 33.7773Z" fill="black"/>
<path d="M5.6735 27.8105C5.21577 27.8105 4.84473 28.1816 4.84473 28.6393V31.9544C4.84473 32.4121 5.21585 32.7832 5.6735 32.7832C6.13116 32.7832 6.50228 32.4121 6.50228 31.9544V28.6393C6.50228 28.1816 6.13124 27.8105 5.6735 27.8105Z" fill="black"/>
<path d="M12.5798 27.8105C12.122 27.8105 11.751 28.1816 11.751 28.6393V31.9544C11.751 32.4121 12.122 32.7832 12.5798 32.7832C13.0374 32.7832 13.4085 32.4121 13.4085 31.9544V28.6393C13.4085 28.1816 13.0375 27.8105 12.5798 27.8105Z" fill="black"/>
<path d="M19.486 27.8105C19.0283 27.8105 18.6572 28.1816 18.6572 28.6393V31.9544C18.6572 32.4121 19.0283 32.7832 19.486 32.7832C19.9437 32.7832 20.3148 32.4121 20.3148 31.9544V28.6393C20.3148 28.1816 19.9437 27.8105 19.486 27.8105Z" fill="black"/>
<path d="M26.3923 27.8105C25.9346 27.8105 25.5635 28.1816 25.5635 28.6393V31.9544C25.5635 32.4121 25.9346 32.7832 26.3923 32.7832C26.8499 32.7832 27.221 32.4121 27.221 31.9544V28.6393C27.221 28.1816 26.85 27.8105 26.3923 27.8105Z" fill="black"/>
<path d="M34.7635 0.75C34.3058 0.75 33.9347 1.12104 33.9347 1.57878V2.40755H26.3929C19.7709 2.40755 14.3346 7.57778 13.9065 14.0933H13.154C12.6964 14.0933 12.3252 14.4643 12.3252 14.9221V17.1582C10.3359 17.7268 8.48602 18.7565 6.94782 20.1587C5.43075 21.5417 4.24502 23.261 3.49149 25.158H3.23698C2.77933 25.158 2.4082 25.529 2.4082 25.9868C2.4082 26.4444 2.77925 26.8156 3.23698 26.8156H4.06575H28.0005H28.8293C29.287 26.8156 29.6581 26.4444 29.6581 25.9868C29.6581 25.529 29.287 25.158 28.8293 25.158H28.5748C27.8213 23.2609 26.6355 21.5416 25.1185 20.1587C23.5803 18.7565 21.7305 17.7268 19.741 17.1582V14.9221C19.741 14.4643 19.3699 14.0933 18.9123 14.0933H18.2296C18.6464 9.95686 22.1484 6.71718 26.3929 6.71718H33.9347V7.54596C33.9347 8.00361 34.3058 8.37473 34.7635 8.37473C35.2211 8.37473 35.5923 8.00361 35.5923 7.54596V1.57878C35.5923 1.12104 35.2212 0.75 34.7635 0.75ZM18.0835 15.7508V16.994H13.9828V15.7508H18.0835ZM26.7719 25.1581H5.2945C6.78778 21.9541 9.70366 19.5152 13.15 18.6515H18.9163C22.3627 19.5152 25.2786 21.9541 26.7719 25.1581ZM26.3929 5.05963C21.2338 5.05963 16.9879 9.04148 16.5656 14.0933H15.5673C15.9921 8.49242 20.6852 4.0651 26.3929 4.0651H33.9347V5.05963H26.3929Z" fill="black"/>
</g>
<defs>
<clipPath id="clip0">
<rect width="38" height="38" fill="white" transform="translate(0 0.75)"/>
</clipPath>
</defs>
</svg>
