<svg width="100" height="90" viewBox="0 0 100 90" fill="none" xmlns="http://www.w3.org/2000/svg">
<path d="M36.7641 0.00999712C36.5281 0.0209971 36.2941 0.0740082 36.0766 0.166308L1.0766 16.1663C-0.0485024 16.6784 -0.316132 18.3163 0.389098 19.2913L11.2641 32.0101L0.389098 44.6976C-0.265352 45.6168 -0.0485024 47.3104 1.0766 47.8226L11.9203 52.7913V71.9923C11.9263 72.7556 12.4104 73.4947 13.1078 73.8048L49.0766 89.8048C49.5863 90.0314 50.1919 90.0314 50.7016 89.8048L86.7328 73.8048C87.4303 73.4947 87.9146 72.7556 87.9203 71.9923V52.7913L98.7641 47.8226C99.8892 47.3104 100.258 45.6347 99.4516 44.6976L88.5766 32.0101L99.4516 19.2913C100.258 18.3542 99.8892 16.6784 98.7641 16.1663L63.7641 0.166308C63.4514 0.0301082 63.1035 -0.0243029 62.7641 0.00999712C62.2695 0.0459971 61.7913 0.273697 61.4516 0.634997L49.9203 13.0413L38.3891 0.634997C37.9783 0.197097 37.3625 -0.0398029 36.7641 0.00999712ZM36.4516 4.41631L46.5453 15.2913L14.4828 29.5726L5.17035 18.7288L36.4516 4.41631ZM63.3891 4.41631L94.6703 18.7288L85.3578 29.5726L53.2953 15.2913L63.3891 4.41631ZM49.9203 18.1975L80.9828 32.0101L49.9203 45.7913L18.8578 32.0101L49.9203 18.1975ZM14.4828 34.4164L46.5453 48.6976L36.4516 59.5726L5.17035 45.2601L14.4828 34.4164ZM85.3578 34.4164L94.6703 45.2601L63.3891 59.5726L53.2953 48.6976L85.3578 34.4164ZM47.9203 53.1038V84.8985L15.9203 70.6798V54.6038L36.0766 63.8226C36.8409 64.1739 37.8219 63.975 38.3891 63.3538L47.9203 53.1038ZM51.9203 53.1038L61.4516 63.3538C62.0188 63.975 62.9998 64.1739 63.7641 63.8226L83.9203 54.6038V70.6798L51.9203 84.8673V53.1038Z" fill="white"/>
<path d="M54.0206 24.7073L54.0206 36.3145C54.0206 36.8944 53.5505 37.3645 52.9706 37.3645C52.3907 37.3645 51.9206 36.8944 51.9206 36.3145L51.9206 24.7073L49.435 27.1928C49.0445 27.5834 48.4113 27.5834 48.0208 27.1928C47.6303 26.8023 47.6303 26.1691 48.0208 25.7786L52.2635 21.536C52.654 21.1455 53.2871 21.1455 53.6777 21.536L57.9203 25.7786C58.3108 26.1691 58.3108 26.8023 57.9203 27.1928C57.5298 27.5834 56.8966 27.5834 56.5061 27.1928L54.0206 24.7073ZM43.4353 36.7494L43.4353 25.1422C43.4353 24.5623 43.9054 24.0922 44.4853 24.0922C45.0652 24.0922 45.5353 24.5623 45.5353 25.1422L45.5353 36.7494L48.0208 34.2639C48.4113 33.8734 49.0445 33.8734 49.435 34.2639C49.8256 34.6544 49.8256 35.2876 49.435 35.6781L45.1924 39.9208C44.8019 40.3113 44.1687 40.3113 43.7782 39.9208L39.5355 35.6781C39.145 35.2876 39.145 34.6544 39.5355 34.2639C39.9261 33.8734 40.5592 33.8734 40.9497 34.2639L43.4353 36.7494Z" fill="white"/>
</svg>
