<svg width="18" height="18" viewBox="0 0 18 18" fill="none" xmlns="http://www.w3.org/2000/svg">
<path d="M12.4393 0.753433L10.4605 0.75C8.23742 0.75 6.80074 2.34382 6.80074 4.81067V6.68291H4.81115C4.63922 6.68291 4.5 6.83363 4.5 7.01953V9.73219C4.5 9.9181 4.63938 10.0686 4.81115 10.0686H6.80074V16.9136C6.80074 17.0995 6.93996 17.25 7.11189 17.25H9.70774C9.87967 17.25 10.0189 17.0993 10.0189 16.9136V10.0686H12.3452C12.5171 10.0686 12.6563 9.9181 12.6563 9.73219L12.6573 7.01953C12.6573 6.93027 12.6244 6.84478 12.5662 6.78162C12.5079 6.71845 12.4285 6.68291 12.346 6.68291H10.0189V5.09579C10.0189 4.33296 10.187 3.9457 11.106 3.9457L12.439 3.94519C12.6108 3.94519 12.75 3.79447 12.75 3.60874V1.08988C12.75 0.904318 12.6109 0.753776 12.4393 0.753433Z" fill="#212326"/>
</svg>
