<svg width="20" height="18" viewBox="0 0 20 18" fill="none" xmlns="http://www.w3.org/2000/svg">
<path d="M13.3682 1.5H6.63175C3.89398 1.5 1.66666 3.5046 1.66666 5.96858V12.0314C1.66666 14.4954 3.89398 16.5 6.63175 16.5H13.3682C16.106 16.5 18.3333 14.4954 18.3333 12.0314V5.96858C18.3333 3.5046 16.106 1.5 13.3682 1.5ZM16.6567 12.0314C16.6567 13.6659 15.1844 14.991 13.3682 14.991H6.63175C4.81562 14.991 3.34332 13.6659 3.34332 12.0314V5.96858C3.34332 4.33404 4.81562 3.009 6.63175 3.009H13.3682C15.1844 3.009 16.6567 4.33404 16.6567 5.96858V12.0314Z" fill="#212326"/>
<path d="M9.99998 5.25C7.70248 5.25 5.83331 6.93225 5.83331 8.99999C5.83331 11.0677 7.70248 12.75 9.99998 12.75C12.2975 12.75 14.1666 11.0677 14.1666 8.99999C14.1666 6.93223 12.2975 5.25 9.99998 5.25ZM9.99998 11.2914C8.59386 11.2914 7.454 10.2655 7.454 9.00001C7.454 7.7345 8.59389 6.70862 9.99998 6.70862C11.4061 6.70862 12.546 7.7345 12.546 9.00001C12.546 10.2655 11.4061 11.2914 9.99998 11.2914Z" fill="#212326"/>
<path d="M14.1666 6C14.6269 6 15 5.66421 15 5.25C15 4.83579 14.6269 4.5 14.1666 4.5C13.7064 4.5 13.3333 4.83579 13.3333 5.25C13.3333 5.66421 13.7064 6 14.1666 6Z" fill="#212326"/>
</svg>
