<svg width="82" height="86" viewBox="0 0 82 86" fill="none" xmlns="http://www.w3.org/2000/svg">
<path d="M52.9875 78.0497V77.9497C52.9875 77.8497 52.9875 77.7497 52.9875 77.6497V77.5497C52.9875 77.4497 52.9875 77.3497 52.9875 77.2497V77.1497C52.9875 77.0497 52.8875 76.9497 52.8875 76.8497L41.8875 52.1497C41.3875 51.1497 40.1875 50.6497 39.1875 51.1497C38.1875 51.6497 37.6875 52.8497 38.1875 53.8497L48.7875 77.7497L47.2875 81.3497L41.7875 80.6497L39.0875 74.5497L39.8875 71.1497V71.0497C39.8875 70.9497 39.8875 70.9497 39.8875 70.8497C39.8875 70.7497 39.8875 70.7497 39.8875 70.6497C39.8875 70.5497 39.8875 70.5497 39.8875 70.4497C39.8875 70.3497 39.8875 70.3497 39.8875 70.2497C39.8875 70.1497 39.8875 70.1497 39.8875 70.0497C39.8875 69.9497 39.8875 69.9497 39.7875 69.8497C39.7875 69.7497 39.6875 69.7497 39.6875 69.6497C39.6875 69.5497 39.5875 69.5497 39.5875 69.4497L39.4875 69.3497C39.4875 69.2497 39.3875 69.2497 39.2875 69.1497L39.1875 69.0497C39.0875 68.9497 39.0875 68.9497 38.9875 68.9497C38.9875 68.9497 38.9875 68.9497 38.8875 68.9497L35.6875 67.1497L30.4875 55.3497C30.4875 55.2497 30.3875 55.2497 30.3875 55.1497C30.3875 55.0497 30.2875 55.0497 30.2875 54.9497C30.2875 54.8497 30.1875 54.8497 30.1875 54.7497L30.0875 54.6497C30.0875 54.6497 29.9875 54.5497 29.8875 54.5497C29.7875 54.5497 29.7875 54.4497 29.6875 54.4497C29.5875 54.4497 29.5875 54.3497 29.4875 54.3497C29.3875 54.3497 29.3875 54.2497 29.2875 54.2497C29.1875 54.2497 29.0875 54.1497 29.0875 54.1497H28.9875L26.0875 53.6497L23.8875 48.6497C23.8875 48.6497 23.8875 48.5497 23.7875 48.5497C23.7875 48.4497 23.6875 48.4497 23.6875 48.3497C23.6875 48.2497 23.5875 48.2497 23.5875 48.1497L23.4875 48.0497C23.4875 47.9497 23.3875 47.9497 23.2875 47.9497L23.1875 47.8497C23.0875 47.8497 23.0875 47.7497 22.9875 47.7497C22.8875 47.7497 22.8875 47.6497 22.7875 47.6497C22.6875 47.6497 22.6875 47.6497 22.5875 47.5497C22.4875 47.5497 22.4875 47.5497 22.3875 47.4497C22.2875 47.4497 22.2875 47.4497 22.1875 47.4497H22.0875C16.7875 47.1497 12.2875 44.0497 10.0875 39.1497C6.9875 32.1497 10.1875 24.0497 17.1875 20.8497C20.2875 19.4497 18.5875 15.9497 15.4875 17.1497C6.1875 20.6497 2.2875 31.8497 6.2875 40.8497C8.8875 46.6497 14.2875 50.6497 20.4875 51.4497L22.6875 56.3497C22.7875 56.4497 22.7875 56.6497 22.8875 56.7497L22.9875 56.8497C23.0875 56.9497 23.1875 57.0497 23.1875 57.0497L23.2875 57.1497C23.3875 57.2497 23.4875 57.2497 23.5875 57.3497C23.5875 57.3497 23.6875 57.3497 23.6875 57.4497C23.7875 57.5497 23.9875 57.5497 24.0875 57.5497L26.9875 58.0497L32.0875 69.4497C32.1875 69.6497 32.2875 69.7497 32.3875 69.9497L32.4875 70.0497C32.5875 70.1497 32.7875 70.3497 32.8875 70.4497L35.2875 71.8497L34.6875 74.4497C34.6875 74.4497 34.6875 74.4497 34.6875 74.5497C34.6875 74.6497 34.6875 74.6497 34.6875 74.7497C34.6875 74.8497 34.6875 74.8497 34.6875 74.9497V75.0497C34.6875 75.1497 34.6875 75.2497 34.6875 75.2497V75.3497C34.6875 75.4497 34.7875 75.5497 34.7875 75.7497L38.2875 83.5497C38.3875 83.6497 38.4875 83.8497 38.4875 83.9497L38.5875 84.0497C38.6875 84.1497 38.7875 84.2497 38.7875 84.2497L38.8875 84.3497C38.9875 84.4497 39.0875 84.4497 39.1875 84.5497H39.2875C39.3875 84.6497 39.5875 84.6497 39.7875 84.6497L47.9875 85.6497H48.0875C48.1875 85.6497 48.1875 85.6497 48.2875 85.6497C48.3875 85.6497 48.3875 85.6497 48.4875 85.6497C48.5875 85.6497 48.5875 85.6497 48.6875 85.6497C48.7875 85.6497 48.7875 85.6497 48.8875 85.5497C48.9875 85.5497 48.9875 85.5497 49.0875 85.4497C49.1875 85.4497 49.1875 85.3497 49.2875 85.3497C49.3875 85.3497 49.3875 85.2497 49.4875 85.2497C49.5875 85.2497 49.5875 85.1497 49.6875 85.1497L49.7875 85.0497C49.8875 84.9497 49.8875 84.9497 49.8875 84.8497L49.9875 84.7497C49.9875 84.6497 50.0875 84.6497 50.0875 84.5497C50.0875 84.5497 50.0875 84.4497 50.1875 84.4497L52.5875 78.5497C52.5875 78.4497 52.5875 78.4497 52.6875 78.3497C52.8875 78.1497 52.8875 78.1497 52.9875 78.0497Z" fill="white"/>
<path d="M5.5875 12.5499C7.1875 9.1499 9.9875 6.44991 13.4875 5.14991C16.9875 3.84991 20.8875 3.9499 24.2875 5.5499C27.6875 7.1499 30.3875 9.9499 31.6875 13.4499C32.9875 16.9499 32.8875 20.8499 31.2875 24.2499C30.7875 25.3499 31.2875 26.6499 32.3875 27.1499C32.6875 27.2499 32.9875 27.3499 33.2875 27.3499C34.0875 27.3499 34.8875 26.8499 35.2875 26.0499C37.2875 21.5499 37.4875 16.5499 35.7875 11.9499C34.0875 7.3499 30.6875 3.6499 26.1875 1.6499C21.6875 -0.350095 16.6875 -0.550095 11.9875 1.1499C7.3875 2.84991 3.6875 6.24991 1.6875 10.7499C0.1875 13.9499 -0.3125 17.4499 0.1875 20.8499C0.3875 22.0499 1.3875 22.8499 2.5875 22.6499C3.7875 22.4499 4.5875 21.4499 4.3875 20.2499C4.0875 17.6499 4.4875 15.0499 5.5875 12.5499Z" fill="white"/>
<path d="M81.5875 61.5494C81.5875 61.4494 81.5875 61.4494 81.5875 61.3494V61.2494C81.5875 61.1494 81.5875 61.0494 81.4875 61.0494C81.4875 61.0494 81.4875 61.0494 81.4875 60.9494C81.4875 60.8494 81.3875 60.7494 81.3875 60.6494C81.3875 60.6494 81.3875 60.6494 81.2875 60.5494C81.1875 60.4494 81.1875 60.3494 81.0875 60.3494L54.1875 33.4494L54.0875 33.3494C54.6875 31.0494 54.7875 28.5494 54.3875 25.9494C53.1875 19.2494 48.4875 13.8494 41.8875 11.8494C40.7875 11.5494 39.6875 12.1494 39.2875 13.2494C38.9875 14.3494 39.5875 15.4494 40.6875 15.8494C45.6875 17.3494 49.3875 21.5494 50.2875 26.7494C50.7875 29.4494 50.3875 32.1494 49.3875 34.5494L52.3875 37.5494L77.4875 62.5494L77.3875 66.4494L71.9875 67.8494L67.2875 63.1494L66.7875 59.6494V59.5494C66.7875 59.4494 66.7875 59.4494 66.6875 59.3494C66.6875 59.2494 66.6875 59.2494 66.5875 59.1494C66.5875 59.0494 66.4875 59.0494 66.4875 58.9494C66.4875 58.8494 66.3875 58.8494 66.3875 58.7494C66.3875 58.6494 66.2875 58.6494 66.2875 58.6494C66.2875 58.5494 66.1875 58.5494 66.1875 58.4494L66.0875 58.3494C65.9875 58.3494 65.9875 58.2494 65.8875 58.2494C65.8875 58.2494 65.7875 58.1494 65.6875 58.1494C65.5875 58.1494 65.5875 58.0494 65.4875 58.0494C65.4875 58.0494 65.3875 58.0494 65.2875 57.9494C65.1875 57.9494 65.0875 57.9494 65.0875 57.8494H64.9875L61.4875 57.3494L52.3875 48.1494L52.2875 48.0494C52.1875 48.0494 52.1875 47.9494 52.0875 47.9494C51.9875 47.9494 51.9875 47.8494 51.8875 47.8494C51.7875 47.8494 51.7875 47.7494 51.6875 47.7494C51.5875 47.7494 51.5875 47.7494 51.4875 47.6494C51.3875 47.6494 51.3875 47.6494 51.2875 47.5494C51.1875 47.5494 51.1875 47.5494 51.0875 47.5494C50.9875 47.5494 50.9875 47.5494 50.8875 47.5494C50.7875 47.5494 50.6875 47.5494 50.5875 47.5494H50.4875L47.6875 48.1494L44.5875 45.1494L41.5875 42.1494C40.7875 42.4494 39.8875 42.7494 38.9875 42.8494C31.4875 44.1494 24.1875 39.0494 22.8875 31.4494C21.9875 26.4494 23.8875 21.4494 27.7875 18.2494C28.6875 17.5494 28.7875 16.2494 28.0875 15.3494C27.3875 14.4494 26.0875 14.3494 25.1875 15.0494C20.1875 19.1494 17.6875 25.7494 18.7875 32.1494C20.4875 41.9494 29.8875 48.4494 39.5875 46.7494C39.8875 46.7494 40.0875 46.6494 40.3875 46.5494C40.4875 46.7494 40.5875 46.9494 40.7875 47.0494L45.4875 51.7494C45.5875 51.8494 45.6875 51.9494 45.8875 52.0494C45.8875 52.0494 45.9875 52.0494 45.9875 52.1494C46.0875 52.2494 46.1875 52.2494 46.2875 52.2494H46.3875C46.4875 52.2494 46.5875 52.2494 46.6875 52.3494H46.7875C46.9875 52.3494 47.0875 52.3494 47.1875 52.3494L50.0875 51.8494L58.8875 60.6494C58.9875 60.7494 59.1875 60.8494 59.2875 60.9494C59.2875 60.9494 59.3875 60.9494 59.3875 61.0494C59.5875 61.1494 59.7875 61.1494 59.8875 61.2494L62.6875 61.6494L63.0875 64.2494C63.0875 64.4494 63.1875 64.6494 63.2875 64.8494C63.2875 64.8494 63.2875 64.9494 63.3875 64.9494C63.4875 65.1494 63.5875 65.2494 63.6875 65.4494L69.6875 71.4494C69.7875 71.5494 69.8875 71.6494 70.0875 71.7494C70.0875 71.7494 70.1875 71.7494 70.1875 71.8494C70.2875 71.9494 70.3875 71.9494 70.4875 71.9494H70.5875C70.6875 71.9494 70.7875 71.9494 70.9875 72.0494H71.0875C71.2875 72.0494 71.3875 72.0494 71.5875 71.9494L79.5875 69.9494H79.6875C79.7875 69.9494 79.7875 69.9494 79.8875 69.8494C79.9875 69.8494 79.9875 69.7494 80.0875 69.7494C80.1875 69.7494 80.1875 69.6494 80.2875 69.6494C80.3875 69.6494 80.3875 69.5494 80.4875 69.5494L80.5875 69.4494C80.5875 69.3494 80.6875 69.3494 80.6875 69.2494L80.7875 69.1494C80.7875 69.0494 80.8875 69.0494 80.8875 68.9494C80.8875 68.8494 80.9875 68.8494 80.9875 68.7494C80.9875 68.6494 80.9875 68.6494 81.0875 68.5494C81.0875 68.4494 81.0875 68.4494 81.0875 68.3494C81.0875 68.2494 81.0875 68.1494 81.0875 68.1494V68.0494L81.1875 61.7494C81.5875 61.6494 81.5875 61.5494 81.5875 61.5494Z" fill="white"/>
</svg>
