<svg width="182" height="49" viewBox="0 0 182 49" fill="none" xmlns="http://www.w3.org/2000/svg">
<path d="M65.8782 25.3185C65.8415 25.5367 65.7314 25.6459 65.4745 25.6459H57.9508C57.9141 25.6459 57.8774 25.6459 57.8407 25.6823C57.804 25.7186 57.804 25.755 57.804 25.7914C57.7673 26.0824 57.7673 26.4825 57.7673 26.9555C57.804 27.5739 57.9875 28.0831 58.3545 28.4833C58.7215 28.8834 59.2354 29.0653 59.896 29.0653C60.4465 29.029 60.9603 28.9198 61.364 28.6288C61.8044 28.3742 62.1347 27.974 62.3916 27.5011C62.5384 27.2828 62.6853 27.2101 62.8688 27.2828L65.1075 27.7558C65.3277 27.8285 65.4011 27.974 65.3277 28.1923C64.7772 29.3927 64.0065 30.3021 63.0523 30.9206C62.0613 31.5753 60.9236 31.8664 59.6024 31.8664C57.9141 31.8664 56.6663 31.4298 55.8222 30.5204C54.9781 29.611 54.5743 28.3742 54.5743 26.8099C54.5743 26.1915 54.6477 25.3549 54.7945 24.2999C54.9047 23.1722 55.0515 22.19 55.2717 21.3534C55.6387 19.971 56.3727 18.8434 57.437 18.0067C58.5013 17.17 59.7859 16.7699 61.2906 16.7699C62.8688 16.7699 64.0799 17.2064 64.9607 18.0794C65.8415 18.9525 66.2819 20.1166 66.2819 21.5353C66.2085 22.5538 66.0984 23.827 65.8782 25.3185ZM59.2721 20.2257C58.8317 20.5895 58.5013 21.0987 58.3545 21.7171L58.0976 23.1359C58.0976 23.245 58.1343 23.2814 58.2444 23.2814H62.7219C62.8321 23.2814 62.8688 23.245 62.8688 23.1359C62.9055 22.4447 62.9422 21.9718 62.9422 21.6808C62.9422 21.0624 62.7587 20.5895 62.3916 20.1893C62.0246 19.8255 61.5475 19.6436 60.9603 19.6436C60.263 19.6436 59.7492 19.8255 59.2721 20.2257Z" fill="#212326"/>
<path d="M76.9619 17.1336C77.0353 17.0609 77.1087 17.0245 77.2188 17.0245H79.7879C80.0081 17.0245 80.1182 17.1336 80.1182 17.3519L78.3933 31.3207C78.3566 31.4298 78.3198 31.5026 78.2464 31.5754C78.173 31.6481 78.0996 31.6845 77.9895 31.6845H75.3838C75.2737 31.6845 75.2003 31.6481 75.1636 31.5754C75.0902 31.5026 75.0902 31.4298 75.0902 31.3207L75.237 30.193C75.2737 30.1203 75.237 30.0839 75.2003 30.0475C75.1636 30.0475 75.1269 30.0475 75.0902 30.1203C74.6498 30.7023 74.1726 31.1388 73.5854 31.4298C72.9982 31.7209 72.3743 31.8664 71.7137 31.8664C70.4658 31.8664 69.4749 31.4662 68.7776 30.6659C68.0803 29.8656 67.75 28.7743 67.75 27.4284C67.7133 26.9555 67.7867 25.9005 68.0069 24.2999C68.2271 22.663 68.4106 21.5716 68.6308 21.026C68.9611 19.7164 69.585 18.6978 70.4658 17.8975C71.3467 17.1336 72.411 16.7335 73.6955 16.7335C75.0902 16.7335 76.0444 17.2791 76.5949 18.4068C76.6316 18.4796 76.6316 18.4796 76.6683 18.4796C76.705 18.4796 76.7417 18.4432 76.7417 18.3341L76.8518 17.3155C76.8518 17.2791 76.8885 17.17 76.9619 17.1336ZM75.971 24.3727C76.1178 23.2086 76.1912 22.3356 76.1912 21.7171C76.1912 21.1351 76.0077 20.6258 75.6774 20.2621C75.3471 19.8983 74.87 19.68 74.2827 19.68C73.6955 19.68 73.145 19.8619 72.7046 20.2621C72.2642 20.6622 71.9339 21.1351 71.7871 21.7171C71.6036 22.5174 71.4568 23.3905 71.31 24.3727C71.1999 25.3549 71.1265 26.2643 71.1265 27.0282C71.1265 27.6466 71.31 28.1559 71.677 28.5197C72.044 28.9198 72.5211 29.1017 73.1083 29.1017C73.6955 29.1017 74.2093 28.9198 74.6498 28.5197C75.0902 28.1195 75.3471 27.6466 75.5306 27.0282C75.6774 26.3734 75.8242 25.5004 75.971 24.3727Z" fill="#212326"/>
<path d="M90.4311 17.17C90.5779 17.2428 90.6146 17.3883 90.5412 17.6065L89.7338 20.2257C89.6604 20.444 89.5503 20.5167 89.3301 20.444C89.0732 20.3348 88.8163 20.2984 88.486 20.2984C88.3759 20.2984 88.1923 20.3348 87.8987 20.3712C87.2381 20.444 86.6876 20.735 86.1738 21.2442C85.6967 21.7899 85.4031 22.4447 85.293 23.245L84.2654 31.3571C84.2287 31.4662 84.192 31.539 84.1186 31.6117C84.0451 31.6845 83.9717 31.7209 83.8616 31.7209H81.2926C81.0724 31.7209 80.9623 31.6117 80.9623 31.3935L82.6872 17.4247C82.7239 17.3155 82.7606 17.2428 82.834 17.17C82.9074 17.0973 82.9808 17.0609 83.0909 17.0609H85.6967C85.8068 17.0609 85.8802 17.0973 85.9169 17.17C85.9536 17.2428 85.9903 17.3155 85.9903 17.4247L85.8435 18.6615C85.8068 18.7342 85.8435 18.7706 85.8802 18.807C85.9169 18.807 85.9536 18.807 85.9903 18.7342C86.7977 17.5338 87.7886 16.9154 89.0365 16.9154C89.6604 16.8426 90.1008 16.9517 90.4311 17.17Z" fill="#212326"/>
<path d="M90.4312 31.5753C90.3578 31.5026 90.3578 31.4298 90.3578 31.3207L92.7801 11.8953C92.7801 11.7862 92.8168 11.7134 92.8902 11.6407C92.9636 11.5679 93.037 11.5315 93.1471 11.5315H95.7161C95.8262 11.5315 95.8996 11.5679 95.9363 11.6407C96.0097 11.7134 96.0097 11.7862 96.0097 11.8953L93.5875 31.3207C93.5508 31.4298 93.5141 31.5026 93.4407 31.5753C93.3673 31.6481 93.2939 31.6845 93.1838 31.6845H90.6147C90.578 31.6845 90.5046 31.6481 90.4312 31.5753Z" fill="#212326"/>
<path d="M95.2023 37.0683L95.4592 34.9948C95.4959 34.8857 95.5326 34.8129 95.606 34.7402C95.6794 34.6674 95.7528 34.631 95.8262 34.631C96.5235 34.5947 97.074 34.5219 97.4777 34.3764C97.8814 34.2309 98.2485 33.9399 98.5421 33.5397C98.8357 33.1396 99.0926 32.5212 99.3495 31.7572C99.3862 31.7209 99.3862 31.6481 99.3862 31.5754L97.074 17.3519V17.2791C97.074 17.17 97.1107 17.0973 97.1841 17.0245C97.2575 16.9517 97.3309 16.9154 97.441 16.9154H100.23C100.414 16.9154 100.524 17.0245 100.561 17.2064L101.588 27.0282C101.588 27.101 101.625 27.1373 101.662 27.1373C101.698 27.1373 101.735 27.101 101.735 27.0282L105.222 17.2428C105.332 17.0245 105.442 16.9154 105.625 16.9154L108.341 16.9517C108.451 16.9517 108.525 16.9881 108.561 17.0609C108.598 17.1336 108.598 17.2064 108.561 17.3155L102.322 32.412C101.735 33.758 101.185 34.7765 100.707 35.4677C100.194 36.1225 99.5697 36.6318 98.799 36.8864C98.0283 37.1411 96.9639 37.3229 95.606 37.3229H95.4225C95.239 37.3957 95.2023 37.2866 95.2023 37.0683Z" fill="#212326"/>
<path d="M132.307 17.8248C132.931 18.516 133.224 19.4981 133.224 20.7713C133.224 21.2079 133.188 21.5716 133.151 21.7899L131.977 31.3571C131.94 31.4662 131.903 31.539 131.83 31.6117C131.756 31.6845 131.683 31.7209 131.573 31.7209H129.041C128.93 31.7209 128.857 31.6845 128.82 31.6117C128.747 31.539 128.747 31.4662 128.747 31.3571L129.885 22.2628C129.921 22.1537 129.921 22.0082 129.921 21.7899C129.921 21.1351 129.775 20.5894 129.444 20.2257C129.151 19.8619 128.71 19.68 128.123 19.68C127.462 19.68 126.912 19.8983 126.471 20.3712C126.031 20.8441 125.774 21.4625 125.664 22.2264L124.526 31.3571C124.49 31.4662 124.453 31.539 124.38 31.6117C124.306 31.6845 124.233 31.7209 124.123 31.7209H121.554C121.443 31.7209 121.37 31.6845 121.333 31.6117C121.26 31.539 121.26 31.4662 121.26 31.3571L122.361 22.2628C122.398 22.1537 122.398 21.9718 122.398 21.7171C122.398 21.0987 122.251 20.5894 121.921 20.2257C121.627 19.8619 121.187 19.68 120.636 19.68C119.975 19.68 119.425 19.8983 118.984 20.3712C118.544 20.8441 118.287 21.4625 118.177 22.2264L117.039 31.3571C117.003 31.4662 116.966 31.539 116.893 31.6117C116.819 31.6845 116.746 31.7209 116.636 31.7209H114.103C113.883 31.7209 113.773 31.6117 113.773 31.3935L115.498 17.4246C115.535 17.3155 115.571 17.2428 115.645 17.17C115.718 17.0972 115.791 17.0609 115.902 17.0609H118.471C118.581 17.0609 118.654 17.0972 118.691 17.17C118.728 17.2428 118.764 17.3155 118.764 17.4246L118.691 18.1522C118.654 18.2249 118.691 18.2613 118.728 18.2613C118.764 18.2613 118.801 18.2613 118.838 18.2249C119.718 17.3155 120.82 16.879 122.141 16.879C122.948 16.879 123.646 17.0609 124.196 17.4246C124.747 17.7884 125.15 18.2977 125.407 18.9161C125.481 19.0252 125.554 18.9889 125.627 18.8433C126.141 18.1522 126.728 17.6429 127.426 17.3519C128.123 17.0245 128.82 16.879 129.554 16.879C130.802 16.7699 131.683 17.1336 132.307 17.8248Z" fill="#212326"/>
<path d="M144.125 17.1336C144.198 17.0609 144.271 17.0245 144.382 17.0245H146.951C147.171 17.0245 147.281 17.1336 147.281 17.3519L145.556 31.3207C145.519 31.4298 145.483 31.5026 145.409 31.5754C145.336 31.6481 145.262 31.6845 145.152 31.6845H142.546C142.436 31.6845 142.363 31.6481 142.326 31.5754C142.253 31.5026 142.253 31.4298 142.253 31.3207L142.4 30.193C142.436 30.1203 142.4 30.0839 142.363 30.0475C142.326 30.0475 142.29 30.0475 142.253 30.1203C141.812 30.7023 141.335 31.1388 140.748 31.4298C140.161 31.7209 139.537 31.8664 138.876 31.8664C137.629 31.8664 136.638 31.4662 135.94 30.6659C135.243 29.8656 134.913 28.7743 134.913 27.4284C134.876 26.9555 134.949 25.9005 135.17 24.2999C135.39 22.663 135.573 21.5716 135.794 21.026C136.124 19.7164 136.748 18.6978 137.629 17.8975C138.509 17.1336 139.574 16.7335 140.858 16.7335C142.253 16.7335 143.207 17.2791 143.758 18.4068C143.794 18.4796 143.794 18.4796 143.831 18.4796C143.868 18.4796 143.904 18.4432 143.904 18.3341L144.015 17.3155C144.015 17.2791 144.051 17.17 144.125 17.1336ZM143.134 24.3727C143.281 23.2086 143.354 22.3356 143.354 21.7171C143.354 21.1351 143.17 20.6258 142.84 20.2621C142.51 19.8983 142.033 19.68 141.445 19.68C140.858 19.68 140.308 19.8619 139.867 20.2621C139.427 20.6622 139.097 21.1351 138.95 21.7171C138.766 22.5174 138.619 23.3905 138.473 24.3727C138.363 25.3549 138.289 26.2643 138.289 27.0282C138.289 27.6466 138.473 28.1559 138.84 28.5197C139.207 28.9198 139.684 29.1017 140.271 29.1017C140.858 29.1017 141.372 28.9198 141.812 28.5197C142.253 28.1195 142.51 27.6466 142.693 27.0282C142.84 26.3734 142.987 25.5004 143.134 24.3727Z" fill="#212326"/>
<path d="M156.456 19.4254C156.383 19.4981 156.309 19.5345 156.199 19.5345H153.924C153.887 19.5345 153.85 19.5345 153.814 19.5709C153.777 19.6073 153.777 19.6436 153.777 19.68L152.896 26.8827C152.86 27.0282 152.86 27.1737 152.86 27.392C152.86 27.9013 152.97 28.265 153.227 28.4833C153.483 28.7016 153.85 28.8107 154.328 28.7743H154.841C154.951 28.7743 155.025 28.8107 155.062 28.8834C155.135 28.9562 155.135 29.0289 155.135 29.1381L154.841 31.3207C154.841 31.4298 154.805 31.5026 154.731 31.5753C154.658 31.6481 154.584 31.6845 154.474 31.7209H153.263C152.015 31.7209 151.061 31.539 150.437 31.1388C149.813 30.7387 149.483 30.0111 149.483 28.9562C149.483 28.8107 149.52 28.5197 149.556 28.1559L150.584 19.68C150.621 19.5709 150.584 19.5345 150.474 19.5345H149.153C149.043 19.5345 148.969 19.4981 148.933 19.4254C148.859 19.3526 148.859 19.2799 148.859 19.1707L149.079 17.3155C149.116 17.2064 149.153 17.1336 149.226 17.0609C149.3 16.9881 149.373 16.9517 149.483 16.9517H150.804C150.914 16.9517 150.951 16.9154 150.951 16.8062L151.355 13.5323C151.391 13.4232 151.428 13.3504 151.502 13.2776C151.575 13.2049 151.648 13.1685 151.759 13.1685H154.254C154.364 13.1685 154.438 13.2049 154.474 13.2776C154.548 13.3504 154.548 13.4232 154.548 13.5323L154.144 16.8062C154.144 16.9154 154.181 16.9517 154.254 16.9517H156.53C156.64 16.9517 156.713 16.9881 156.75 17.0609C156.787 17.1336 156.823 17.2064 156.823 17.3155L156.603 19.1707C156.566 19.2799 156.53 19.389 156.456 19.4254Z" fill="#212326"/>
<path d="M158.658 30.7387C157.777 29.9384 157.337 28.8471 157.3 27.4647C157.227 26.6281 157.3 25.5731 157.484 24.2999C157.631 23.1722 157.814 22.1173 158.108 21.1715C158.475 19.8255 159.209 18.7706 160.273 17.9703C161.337 17.17 162.622 16.7699 164.127 16.7699C165.558 16.7699 166.732 17.1336 167.65 17.8975C168.531 18.6615 169.008 19.6437 169.081 20.8805C169.081 21.2079 169.081 21.4625 169.045 21.608C169.045 21.8263 168.935 21.9354 168.714 21.9718L166.145 22.2264H166.072C165.852 22.2264 165.778 22.1173 165.815 21.899C165.815 21.6808 165.815 21.5353 165.778 21.4625C165.742 20.9532 165.558 20.5167 165.191 20.1529C164.824 19.7892 164.347 19.6073 163.76 19.6073C163.136 19.6073 162.585 19.7892 162.108 20.1893C161.668 20.5895 161.337 21.0624 161.191 21.7171C161.044 22.2264 160.897 23.0995 160.714 24.2999C160.603 25.4276 160.567 26.3007 160.567 26.9555C160.567 27.5739 160.75 28.0831 161.081 28.4469C161.411 28.8107 161.925 28.9926 162.549 28.9926C163.172 28.9926 163.686 28.8107 164.163 28.4469C164.604 28.0831 164.897 27.6102 165.044 27.101L165.118 26.8099C165.154 26.7008 165.191 26.6281 165.264 26.5553C165.338 26.4826 165.411 26.4826 165.521 26.4826L168.054 26.7008C168.274 26.7372 168.384 26.8463 168.311 27.0646L168.237 27.5375C167.907 28.8471 167.21 29.8656 166.109 30.6659C165.008 31.4662 163.723 31.83 162.218 31.83C160.714 31.83 159.539 31.539 158.658 30.7387Z" fill="#212326"/>
<path d="M158.658 30.7387C157.777 29.9384 157.337 28.8471 157.3 27.4647C157.227 26.6281 157.3 25.5731 157.484 24.2999C157.631 23.1722 157.814 22.1173 158.108 21.1715C158.475 19.8255 159.209 18.7706 160.273 17.9703C161.337 17.17 162.622 16.7699 164.127 16.7699C165.558 16.7699 166.732 17.1336 167.65 17.8975C168.531 18.6615 169.008 19.6437 169.081 20.8805C169.081 21.2079 169.081 21.4625 169.045 21.608C169.045 21.8263 168.935 21.9354 168.714 21.9718L166.145 22.2264H166.072C165.852 22.2264 165.778 22.1173 165.815 21.899C165.815 21.6808 165.815 21.5353 165.778 21.4625C165.742 20.9532 165.558 20.5167 165.191 20.1529C164.824 19.7892 164.347 19.6073 163.76 19.6073C163.136 19.6073 162.585 19.7892 162.108 20.1893C161.668 20.5895 161.337 21.0624 161.191 21.7171C161.044 22.2264 160.897 23.0995 160.714 24.2999C160.603 25.4276 160.567 26.3007 160.567 26.9555C160.567 27.5739 160.75 28.0831 161.081 28.4469C161.411 28.8107 161.925 28.9926 162.549 28.9926C163.172 28.9926 163.686 28.8107 164.163 28.4469C164.604 28.0831 164.897 27.6102 165.044 27.101L165.118 26.8099C165.154 26.7008 165.191 26.6281 165.264 26.5553C165.338 26.4826 165.411 26.4826 165.521 26.4826L168.054 26.7008C168.274 26.7372 168.384 26.8463 168.311 27.0646L168.237 27.5375C167.907 28.8471 167.21 29.8656 166.109 30.6659C165.008 31.4662 163.723 31.83 162.218 31.83C160.714 31.83 159.539 31.539 158.658 30.7387Z" fill="#212326"/>
<path d="M181.009 17.8612C181.67 18.5523 182 19.5709 182 20.8077C182 20.9896 181.963 21.2806 181.927 21.7535L180.752 31.3571C180.716 31.4662 180.679 31.539 180.605 31.6117C180.532 31.6845 180.459 31.7209 180.349 31.7209H177.743C177.633 31.7209 177.559 31.6845 177.523 31.6117C177.449 31.539 177.449 31.4662 177.449 31.3571L178.587 22.2264C178.624 22.1173 178.624 21.9354 178.624 21.7171C178.624 21.0987 178.477 20.5894 178.146 20.2257C177.816 19.8619 177.376 19.68 176.789 19.68C176.128 19.68 175.541 19.8983 175.064 20.3712C174.587 20.8441 174.33 21.4625 174.22 22.2628L173.082 31.3571C173.045 31.4662 173.008 31.539 172.935 31.6117C172.862 31.6845 172.788 31.7209 172.678 31.7209H170.109C169.889 31.7209 169.779 31.6117 169.779 31.3935L172.201 11.9681C172.238 11.8589 172.274 11.7862 172.348 11.7134C172.421 11.6407 172.495 11.6043 172.605 11.6043H175.174C175.284 11.6043 175.357 11.6407 175.394 11.7134C175.467 11.7862 175.467 11.8589 175.467 11.9681L174.697 18.1522C174.66 18.2249 174.697 18.2613 174.733 18.2613C174.77 18.2977 174.807 18.2613 174.843 18.1886C175.724 17.2791 176.789 16.8062 178.11 16.8062C179.431 16.7699 180.385 17.1336 181.009 17.8612Z" fill="#212326"/>
<path d="M8.22104 48.2361C8.22104 48.2361 5.94558 35.1403 17.5798 32.7758C17.5798 32.7758 21.1765 38.0141 17.5798 41.6882C15.6713 43.6526 13.2124 43.4343 8.22104 48.2361Z" fill="#9AD8D8"/>
<path d="M22.3142 49C21.1764 49 20.0387 48.7454 19.1579 48.2361L3.15628 39.069C1.39464 38.0505 0 35.686 0 33.6488V15.3512C0 13.314 1.39464 10.9131 3.15628 9.89458L19.1579 0.76392C20.9195 -0.25464 23.7088 -0.25464 25.5072 0.76392L41.4721 9.89458C43.2337 10.9131 44.6284 13.314 44.6284 15.3148V33.6125C44.6284 35.6496 43.2337 38.0505 41.4721 39.0327L25.4705 48.1633C24.5896 48.7454 23.4519 49 22.3142 49ZM22.3142 1.60059C21.4334 1.60059 20.5892 1.78248 19.9286 2.14625L3.9637 11.2769C2.67917 12.0045 1.57814 13.8597 1.57814 15.3512V33.6488C1.57814 35.1039 2.67917 36.9955 3.9637 37.7231L19.9653 46.8538C21.2498 47.5813 23.4152 47.5813 24.6997 46.8538L40.7014 37.7231C41.9859 36.9955 43.0869 35.1403 43.0869 33.6488V15.3512C43.0869 13.8961 41.9859 12.0045 40.7014 11.2769L24.6997 2.14625C24.0391 1.78248 23.195 1.60059 22.3142 1.60059Z" fill="#FE5D1E"/>
<path d="M34.1319 19.68C34.1319 19.68 23.1216 7.02079 17.3596 22.954C17.3596 22.954 2.97279 30.0475 4.00042 46.6719C4.00042 46.6719 7.89072 42.7431 15.0841 40.7788C20.993 39.1782 25.5806 36.8137 26.5348 31.0297C27.7092 23.8998 30.0581 20.1529 34.1319 19.68Z" fill="#5ABFC5"/>
</svg>
