<svg width="38" height="39" viewBox="0 0 38 39" fill="none" xmlns="http://www.w3.org/2000/svg">
<path d="M31.7631 6.80371H29.9083C29.6314 6.80371 29.4561 6.97909 29.4561 7.17287H29.4561V13.1711C29.4561 13.4203 29.7514 13.5495 30.0559 13.5495C30.3512 13.5495 30.6557 13.4204 30.6557 13.1711V11.0302H31.6894C32.9074 11.0302 33.858 10.4488 33.858 8.93541V8.88012C33.858 7.36666 32.9351 6.80371 31.7631 6.80371ZM32.6582 9.02774C32.6582 9.74751 32.2891 10.089 31.6893 10.089H30.6557V7.85576H31.6893C32.2891 7.85576 32.6582 8.19724 32.6582 8.91701V9.02774Z" fill="black"/>
<path d="M26.6386 24.1229C26.4044 23.994 26.1733 23.8528 25.9518 23.7032L22.3712 21.2843C21.2845 20.5501 20.0168 20.1621 18.7054 20.1621H12.1332C10.3887 20.1621 8.74732 20.8402 7.51129 22.0715C6.87598 22.7045 6.1522 23.234 5.36006 23.6453C4.8916 23.8886 4.60059 24.3674 4.60059 24.8949C4.60059 25.6716 5.23248 26.3035 6.00925 26.3035H8.24991C8.54886 26.3035 8.79126 26.0611 8.79126 25.7622C8.79126 25.4632 8.54886 25.2208 8.24991 25.2208H6.00925C5.8295 25.2208 5.68321 25.0746 5.68321 24.8948C5.68321 24.773 5.75053 24.6624 5.85896 24.6062C6.74891 24.1441 7.56198 23.5493 8.27536 22.8385C9.307 21.8107 10.6771 21.2447 12.1332 21.2447H13.6045V25.2208H11.8061C11.5071 25.2208 11.2647 25.4632 11.2647 25.7622C11.2647 26.0611 11.5071 26.3035 11.8061 26.3035H26.6496C27.0946 26.3035 27.4567 25.9415 27.4567 25.4965C27.4567 24.9266 27.1432 24.4003 26.6386 24.1229ZM14.6874 25.2209V21.2448H18.7054C19.8001 21.2448 20.8581 21.5687 21.7652 22.1814L25.3458 24.6004C25.5945 24.7683 25.8539 24.9269 26.117 25.0716C26.1852 25.1091 26.2422 25.1606 26.2851 25.2209H14.6874Z" fill="black"/>
<path d="M16.0289 27.126H14.3568C14.0578 27.126 13.8154 27.3684 13.8154 27.6673C13.8154 27.9663 14.0578 28.2087 14.3568 28.2087H16.0289C16.3279 28.2087 16.5703 27.9663 16.5703 27.6673C16.5703 27.3684 16.3279 27.126 16.0289 27.126Z" fill="black"/>
<path d="M37.5329 26.6723L37.3619 26.3885C36.7175 25.319 35.6456 24.566 34.421 24.3224L33.0234 24.0445V16.9606H36.6402C37.385 16.9606 37.9907 16.3547 37.9907 15.6101V5.06728C37.9907 4.32257 37.3849 3.7168 36.6402 3.7168H26.0974C25.3527 3.7168 24.747 4.32264 24.747 5.06728V9.06654C24.747 9.36549 24.9893 9.60789 25.2883 9.60789C25.5873 9.60789 25.8297 9.36549 25.8297 9.06654V5.06728C25.8297 4.91958 25.9498 4.79942 26.0975 4.79942H36.6404C36.7881 4.79942 36.9082 4.91958 36.9082 5.06728V15.6102C36.9082 15.7578 36.7881 15.878 36.6404 15.878H26.0974C25.9497 15.878 25.8296 15.7578 25.8296 15.6102V12.5858C25.8296 12.2869 25.5873 12.0445 25.2882 12.0445C24.9892 12.0445 24.7469 12.2869 24.7469 12.5858V15.6102C24.7469 16.3549 25.3527 16.9606 26.0974 16.9606H30.1987V23.4829L29.4803 23.34C28.4888 23.1428 27.5221 22.5444 26.8811 22.1113L23.3005 19.6925C21.9382 18.7722 20.3493 18.2858 18.7054 18.2858H12.1333C9.94646 18.2858 7.8889 19.1358 6.33974 20.6792C5.35946 21.6558 4.12551 22.322 2.77124 22.6056L1.99403 22.7684C0.838594 23.0103 0 24.0429 0 25.2234V30.4662C0 31.0915 0.369237 31.6598 0.940793 31.9138L3.09699 32.8721C3.22739 33.5539 3.55588 34.2051 4.08268 34.7319C4.78279 35.432 5.70243 35.7821 6.62214 35.7821C7.54186 35.7821 8.46142 35.432 9.1616 34.7319C9.61188 34.2816 9.91648 33.7403 10.0772 33.1668H28.0555C28.2162 33.7403 28.5209 34.2816 28.9712 34.7319C29.6495 35.4102 30.5513 35.7838 31.5106 35.7838C32.4699 35.7838 33.3718 35.4102 34.0502 34.7319C34.5005 34.2816 34.805 33.7403 34.9657 33.1668H35.9927C37.0995 33.1668 38 32.2663 38 31.1595V28.3517C37.9999 27.7599 37.8384 27.1792 37.5329 26.6723ZM31.2814 16.9606H31.9408V23.8292L31.2814 23.698V16.9606ZM8.39596 33.9664C7.92215 34.4402 7.29219 34.7011 6.62207 34.7011C5.95195 34.7011 5.32198 34.4402 4.84817 33.9664C4.0881 33.2063 3.91903 32.076 4.34015 31.1508C4.34356 31.1434 4.34683 31.1359 4.35024 31.1285C4.36308 31.101 4.37666 31.0739 4.39054 31.0469C4.39707 31.0341 4.4036 31.0214 4.41043 31.0088C4.42297 30.9853 4.43604 30.962 4.4494 30.9389C4.4586 30.9229 4.46803 30.9071 4.4776 30.8914C4.48999 30.871 4.50254 30.8506 4.5156 30.8305C4.5274 30.8123 4.53957 30.7944 4.55189 30.7765C4.56406 30.7587 4.57616 30.7409 4.58878 30.7235C4.60325 30.7035 4.61832 30.6839 4.63346 30.6643C4.64526 30.649 4.65676 30.6336 4.66893 30.6185C4.68675 30.5965 4.70538 30.575 4.72393 30.5534C4.73454 30.5412 4.74471 30.5287 4.75555 30.5166C4.78316 30.4859 4.81158 30.4558 4.84082 30.4264C4.84335 30.4239 4.84565 30.4212 4.84817 30.4187C4.85374 30.4131 4.8596 30.4079 4.86524 30.4024C4.89003 30.3781 4.91497 30.354 4.94043 30.3309C4.94703 30.3249 4.95401 30.3194 4.96069 30.3134C4.98607 30.2909 5.0116 30.2686 5.03773 30.2473C5.04018 30.2453 5.04277 30.2434 5.04522 30.2414C5.96279 29.4989 7.28617 29.4998 8.20262 30.2444C8.20366 30.2453 8.20478 30.246 8.20589 30.2469C8.23387 30.2697 8.26126 30.2936 8.2885 30.3178C8.29339 30.3221 8.29844 30.3262 8.30326 30.3306C8.33473 30.359 8.36561 30.3883 8.39589 30.4186C8.42854 30.4512 8.46001 30.4849 8.49059 30.5189C8.50403 30.5339 8.51672 30.5493 8.52971 30.5645C8.54559 30.5831 8.56154 30.6017 8.57683 30.6206C8.59398 30.6419 8.61053 30.6636 8.62686 30.6853C8.63606 30.6974 8.64519 30.7095 8.65409 30.7218C8.67391 30.7491 8.69321 30.7767 8.71184 30.8047C8.71503 30.8094 8.71815 30.8143 8.72126 30.819C9.35806 31.7916 9.2497 33.1126 8.39596 33.9664ZM33.2845 33.9664C32.8106 34.4402 32.1806 34.7011 31.5105 34.7011C30.8404 34.7011 30.2105 34.4402 29.7367 33.9664C28.8828 33.1126 28.7744 31.7914 29.4113 30.8189C29.4143 30.8142 29.4174 30.8095 29.4205 30.8049C29.4391 30.7768 29.4585 30.7492 29.4784 30.7217C29.4872 30.7095 29.4963 30.6975 29.5054 30.6856C29.5218 30.6637 29.5384 30.642 29.5557 30.6205C29.5709 30.6018 29.5867 30.5834 29.6025 30.565C29.6156 30.5496 29.6285 30.534 29.642 30.5189C29.6726 30.4849 29.7041 30.4513 29.7367 30.4187C30.2106 29.9449 30.8404 29.6839 31.5106 29.6839C32.1807 29.6839 32.8106 29.9449 33.2845 30.4187C33.3171 30.4513 33.3486 30.4849 33.3792 30.519C33.3927 30.534 33.4054 30.5494 33.4184 30.5647C33.4343 30.5832 33.4502 30.6018 33.4654 30.6206C33.4826 30.642 33.4992 30.6637 33.5156 30.6854C33.5247 30.6975 33.5338 30.7096 33.5427 30.7218C33.5626 30.7492 33.5819 30.7768 33.6005 30.8048C33.6037 30.8095 33.6068 30.8143 33.6099 30.819C34.2466 31.7916 34.1382 33.1126 33.2845 33.9664ZM36.9174 31.1595H36.9172C36.9172 31.6694 36.5024 32.0842 35.9925 32.0842H35.1013C35.0801 31.299 34.803 30.55 34.3042 29.9358C34.3009 29.9316 34.2977 29.9273 34.2943 29.9232C34.2634 29.8856 34.2314 29.8487 34.1989 29.812C34.1906 29.8027 34.1827 29.793 34.1743 29.7837C34.1399 29.7457 34.1043 29.7085 34.0681 29.6719C34.0619 29.6656 34.0563 29.6591 34.05 29.653C33.5836 29.1866 33.0116 28.8643 32.388 28.7085C32.1045 28.6376 31.8103 28.6011 31.5105 28.6011C31.2707 28.6011 31.0344 28.6245 30.8044 28.6701C30.1142 28.8069 29.4798 29.1443 28.971 29.653C28.9649 29.659 28.9594 29.6654 28.9534 29.6716C28.917 29.7085 28.8812 29.7457 28.8467 29.7838C28.8385 29.7928 28.831 29.8021 28.823 29.8112C28.7902 29.8481 28.7578 29.8854 28.7267 29.9234C28.7236 29.9272 28.7207 29.9311 28.7176 29.935C28.2185 30.5492 27.941 31.2987 27.9197 32.0843H10.2128C10.1915 31.2978 9.91351 30.5474 9.41313 29.9326C9.41083 29.9297 9.4086 29.9268 9.4063 29.9239C9.37364 29.884 9.33973 29.8449 9.30521 29.8061C9.29883 29.799 9.29289 29.7917 9.28644 29.7845C9.24599 29.7399 9.20442 29.696 9.16145 29.653C8.98645 29.478 8.79763 29.3248 8.59865 29.1935C8.00149 28.7997 7.31178 28.6028 6.62207 28.6028C5.70243 28.6028 4.78271 28.9529 4.08261 29.653C4.04261 29.693 4.00394 29.7341 3.96609 29.7756C3.95488 29.788 3.94412 29.8005 3.93306 29.8129C3.90634 29.8431 3.88007 29.8736 3.85446 29.9045C3.84311 29.9182 3.83175 29.932 3.82062 29.946C3.79412 29.979 3.76829 30.0124 3.74306 30.0462C3.73519 30.0567 3.7271 30.067 3.71946 30.0776C3.65162 30.1705 3.58869 30.2662 3.5305 30.3644C3.52887 30.3672 3.52731 30.37 3.52567 30.3727C3.49725 30.421 3.47001 30.47 3.44396 30.5195C3.44322 30.5209 3.44247 30.5224 3.44166 30.5238C3.25292 30.883 3.12601 31.2714 3.06782 31.6744L1.38061 30.9245C1.19967 30.844 1.08277 30.6641 1.08277 30.4662V25.2234C1.08277 24.5524 1.55948 23.9655 2.21624 23.8279L2.99345 23.6652C4.55352 23.3384 5.97496 22.571 7.10412 21.4461C8.44896 20.1062 10.2351 19.3684 12.1335 19.3684H18.7056C20.1327 19.3684 21.5121 19.7907 22.6947 20.5895L26.2753 23.0083C26.9938 23.4938 28.0859 24.1664 29.2693 24.4018L34.21 25.3843C35.1364 25.5686 35.9473 26.1382 36.4348 26.9472L36.6058 27.231C36.8097 27.5692 36.9174 27.9568 36.9174 28.3517V31.1595Z" fill="black"/>
<path d="M7.7842 31.0302C7.47367 30.7198 7.06101 30.5488 6.62201 30.5488C6.18301 30.5488 5.77028 30.7198 5.4599 31.0302C5.14951 31.3406 4.97852 31.7533 4.97852 32.1923C4.97852 32.6313 5.14951 33.0441 5.4599 33.3544C5.77028 33.6648 6.18301 33.8358 6.62208 33.8358C7.06108 33.8358 7.47381 33.6649 7.7842 33.3544C8.425 32.7136 8.425 31.671 7.7842 31.0302ZM7.01856 32.5889C6.91265 32.6948 6.77178 32.7531 6.62201 32.7531C6.47216 32.7531 6.33137 32.6948 6.22546 32.5888C6.11955 32.4829 6.06114 32.3421 6.06114 32.1923C6.06114 32.0424 6.11948 31.9016 6.22546 31.7957C6.33137 31.6898 6.47216 31.6314 6.62201 31.6314C6.77178 31.6314 6.91265 31.6897 7.01856 31.7957C7.23721 32.0144 7.23721 32.3702 7.01856 32.5889Z" fill="black"/>
<path d="M32.6731 31.0303C32.3627 30.7198 31.95 30.5488 31.5109 30.5488C31.0719 30.5488 30.6592 30.7198 30.3487 31.0302C29.708 31.671 29.708 32.7136 30.3487 33.3544C30.6592 33.6649 31.0719 33.8358 31.5109 33.8358C31.95 33.8358 32.3626 33.6649 32.673 33.3545C32.9835 33.0441 33.1544 32.6314 33.1544 32.1924C33.1544 31.7534 32.9835 31.3407 32.6731 31.0303ZM31.9075 32.5889C31.8015 32.6949 31.6607 32.7532 31.5109 32.7532C31.3611 32.7532 31.2203 32.6949 31.1144 32.5889C30.8957 32.3703 30.8957 32.0145 31.1144 31.7958C31.2203 31.6899 31.3611 31.6315 31.5109 31.6315C31.6607 31.6315 31.8015 31.6899 31.9075 31.7958C32.0134 31.9018 32.0718 32.0425 32.0718 32.1924C32.0718 32.3421 32.0135 32.483 31.9075 32.5889Z" fill="black"/>
</svg>
