<svg width="18" height="18" viewBox="0 0 18 18" fill="none" xmlns="http://www.w3.org/2000/svg">
<path d="M15.3159 5.01978C16.0565 4.58666 16.5469 3.99548 16.7871 3.24363C16.0666 3.60777 15.3489 3.85751 14.6321 3.99548C13.9877 3.33532 13.1719 3 12.1939 3C11.2379 3 10.4303 3.3196 9.7713 3.94134C9.11592 4.56744 8.78502 5.32803 8.78502 6.2161C8.78502 6.48593 8.82077 6.72694 8.89227 6.93127C6.07276 6.83958 3.73905 5.72534 1.90032 3.5807C1.58867 4.10551 1.43285 4.63992 1.43285 5.19268C1.43285 6.32874 1.93607 7.22904 2.94068 7.89008C2.3678 7.84379 1.86274 7.70583 1.43285 7.47966C1.43285 8.29089 1.68308 8.96851 2.18447 9.56493C2.6877 10.1552 3.33391 10.5316 4.12312 10.6923C3.83713 10.7621 3.53556 10.7953 3.22575 10.7953C2.93976 10.7953 2.73719 10.7726 2.61712 10.7228C2.82794 11.3839 3.22575 11.92 3.80047 12.3304C4.37335 12.7426 5.0324 12.96 5.77302 12.9792C4.55209 13.8918 3.15609 14.3432 1.57676 14.3432C1.18995 14.3432 0.915877 14.338 0.74997 14.31C2.30547 15.2723 4.03695 15.75 5.95268 15.75C7.91332 15.75 9.64573 15.2767 11.1536 14.3301C12.6614 13.3888 13.7742 12.2274 14.4891 10.8599C15.2078 9.4942 15.5634 8.07258 15.5634 6.58809V6.17942C16.2582 5.68168 16.8201 5.12107 17.25 4.50195C16.6267 4.75781 15.9823 4.93158 15.3159 5.01978Z" fill="#212326"/>
</svg>
