<svg width="20" height="20" viewBox="0 0 20 20" fill="none" xmlns="http://www.w3.org/2000/svg">
<path d="M17.0177 5.57751C17.8406 5.09626 18.3855 4.4394 18.6523 3.60401C17.8518 4.00861 17.0543 4.2861 16.2579 4.4394C15.5419 3.70589 14.6355 3.33331 13.5488 3.33331C12.4865 3.33331 11.5893 3.68843 10.857 4.37925C10.1288 5.07492 9.76112 5.92001 9.76112 6.90676C9.76112 7.20656 9.80084 7.47435 9.88028 7.70139C6.74749 7.59952 4.15449 6.36147 2.11145 3.97853C1.76518 4.56165 1.59204 5.15545 1.59204 5.76962C1.59204 7.03192 2.15117 8.03225 3.26741 8.76673C2.63087 8.71531 2.0697 8.56201 1.59204 8.31071C1.59204 9.21208 1.87008 9.96499 2.42718 10.6277C2.98631 11.2836 3.70433 11.7017 4.58122 11.8803C4.26346 11.9579 3.92839 11.9948 3.58415 11.9948C3.26639 11.9948 3.04131 11.9695 2.90789 11.9142C3.14214 12.6487 3.58415 13.2444 4.22272 13.7005C4.85926 14.1584 5.59154 14.4 6.41445 14.4214C5.05786 15.4353 3.50675 15.9369 1.75194 15.9369C1.32214 15.9369 1.01762 15.9311 0.833283 15.9C2.56161 16.9692 4.48549 17.5 6.61407 17.5C8.79256 17.5 10.7175 16.9741 12.3928 15.9223C14.0682 14.8764 15.3046 13.586 16.099 12.0666C16.8975 10.5491 17.2926 8.96951 17.2926 7.32008V6.866C18.0646 6.31296 18.689 5.69006 19.1666 5.00215C18.4741 5.28643 17.7581 5.47951 17.0177 5.57751Z" fill="white"/>
</svg>
