<svg width="20" height="20" viewBox="0 0 20 20" fill="none" xmlns="http://www.w3.org/2000/svg">
<path d="M13.3682 1.66669H6.63175C3.89398 1.66669 1.66666 3.89402 1.66666 6.63178V13.3683C1.66666 16.106 3.89398 18.3334 6.63175 18.3334H13.3682C16.106 18.3334 18.3333 16.106 18.3333 13.3683V6.63178C18.3333 3.89402 16.106 1.66669 13.3682 1.66669ZM16.6567 13.3683C16.6567 15.1844 15.1844 16.6567 13.3682 16.6567H6.63175C4.81562 16.6567 3.34332 15.1844 3.34332 13.3683V6.63178C3.34332 4.81562 4.81562 3.34335 6.63175 3.34335H13.3682C15.1844 3.34335 16.6567 4.81562 16.6567 6.63178V13.3683Z" fill="white"/>
<path d="M9.99998 5.83337C7.70248 5.83337 5.83331 7.70254 5.83331 10C5.83331 12.2975 7.70248 14.1667 9.99998 14.1667C12.2975 14.1667 14.1666 12.2975 14.1666 10C14.1666 7.70251 12.2975 5.83337 9.99998 5.83337ZM9.99998 12.546C8.59386 12.546 7.454 11.4062 7.454 10.0001C7.454 8.59393 8.59389 7.45406 9.99998 7.45406C11.4061 7.45406 12.546 8.59393 12.546 10.0001C12.546 11.4061 11.4061 12.546 9.99998 12.546Z" fill="white"/>
<path d="M14.1666 6.66667C14.6269 6.66667 15 6.29357 15 5.83333C15 5.3731 14.6269 5 14.1666 5C13.7064 5 13.3333 5.3731 13.3333 5.83333C13.3333 6.29357 13.7064 6.66667 14.1666 6.66667Z" fill="white"/>
</svg>
