<svg width="20" height="20" viewBox="0 0 20 20" fill="none" xmlns="http://www.w3.org/2000/svg">
<path d="M13.8215 0.837128L11.6228 0.833313C9.15268 0.833313 7.55638 2.60422 7.55638 5.34517V7.42544H5.34572C5.15469 7.42544 5 7.5929 5 7.79946V10.8135C5 11.0201 5.15487 11.1874 5.34572 11.1874H7.55638V18.7928C7.55638 18.9994 7.71107 19.1666 7.9021 19.1666H10.7864C10.9774 19.1666 11.1321 18.9992 11.1321 18.7928V11.1874H13.7169C13.9079 11.1874 14.0626 11.0201 14.0626 10.8135L14.0637 7.79946C14.0637 7.70028 14.0271 7.6053 13.9624 7.53511C13.8977 7.46492 13.8095 7.42544 13.7178 7.42544H11.1321V5.66197C11.1321 4.81437 11.3189 4.38409 12.34 4.38409L13.8211 4.38352C14.012 4.38352 14.1667 4.21606 14.1667 4.00969V1.21095C14.1667 1.00478 14.0121 0.837509 13.8215 0.837128Z" fill="white"/>
</svg>
