<svg width="48" height="48" viewBox="0 0 48 48" fill="none" xmlns="http://www.w3.org/2000/svg">
<path d="M38.5366 7.77783C37.3089 7.77719 36.173 8.42666 35.5506 9.48495C34.9285 10.5432 34.9133 11.8518 35.5112 12.9243L31.7713 16.0583C31.0919 15.172 30.0259 14.6685 28.9096 14.7059C27.7933 14.7435 26.764 15.318 26.1458 16.248L21.9216 13.5258C21.9303 13.4249 21.9358 13.3231 21.9358 13.2197C21.9374 11.7655 21.0299 10.465 19.6646 9.96432C18.299 9.46401 16.7661 9.86993 15.8274 10.9807C14.8886 12.0915 14.7439 13.6704 15.4649 14.9336L11.1367 19.1645C9.53787 18.2931 7.53759 18.8044 6.55275 20.3362C5.56823 21.8678 5.93356 23.8999 7.39004 24.9927C8.84684 26.0855 10.9 25.868 12.0952 24.494C13.2904 23.1203 13.2217 21.0566 11.9379 19.7654L16.078 15.7184C16.9031 16.5109 18.0664 16.8447 19.1859 16.6092C20.3057 16.374 21.2364 15.6005 21.6726 14.5428L25.7167 17.1491C25.2698 18.5972 25.8162 20.1677 27.0652 21.0256C28.3146 21.8835 29.9766 21.8301 31.1676 20.8932C32.3589 19.9564 32.8029 18.354 32.2636 16.9378L36.1124 13.712C37.228 14.807 38.939 15.0183 40.2879 14.2284C41.6364 13.4382 42.2885 11.8422 41.879 10.3338C41.4696 8.82517 40.0998 7.77815 38.5366 7.77848V7.77783ZM9.48471 24.6808C8.11844 24.6808 7.01086 23.5733 7.01086 22.2073C7.01086 20.841 8.11844 19.7335 9.48471 19.7335C10.851 19.7335 11.9582 20.841 11.9582 22.2073C11.9566 23.5726 10.8503 24.6792 9.48471 24.6808ZM18.4726 15.6933C17.1063 15.6933 15.9988 14.5857 15.9988 13.2194C15.9988 11.8535 17.1063 10.7459 18.4723 10.7459C19.8386 10.7459 20.9461 11.8531 20.9461 13.2194C20.9445 14.585 19.8379 15.6917 18.4726 15.6933ZM29.0265 20.6407C27.6606 20.6407 26.553 19.5334 26.553 18.1671C26.553 16.8012 27.6606 15.6936 29.0265 15.6936C30.3928 15.6936 31.5004 16.8012 31.5004 18.1671C31.4988 19.5328 30.3921 20.639 29.0265 20.6407ZM38.5366 13.7149C37.1704 13.7149 36.0631 12.6073 36.0631 11.241C36.0631 9.87508 37.1704 8.7675 38.5366 8.7675C39.9029 8.7675 41.0102 9.87508 41.0102 11.241C41.0086 12.6067 39.9023 13.7133 38.5366 13.7149Z" fill="url(#paint0_linear)"/>
<path d="M22.5253 22.9395C22.5253 22.666 22.304 22.4447 22.0305 22.4447H16.9172C16.644 22.4447 16.4223 22.666 16.4223 22.9395V39.7639C16.4223 40.0371 16.644 40.2588 16.9172 40.2588H22.0305C22.304 40.2588 22.5253 40.0371 22.5253 39.7639V22.9395ZM17.412 23.4344H21.5356V39.2691H17.412V23.4344Z" fill="url(#paint1_linear)"/>
<path d="M13.0409 30.6093C13.0409 30.3358 12.8196 30.1145 12.5461 30.1145H7.43276C7.15957 30.1145 6.93793 30.3358 6.93793 30.6093V39.7638C6.93793 40.037 7.15957 40.2586 7.43276 40.2586H12.5461C12.8196 40.2586 13.0409 40.037 13.0409 39.7638V30.6093ZM11.9688 39.269H7.9276V31.1042H11.9688V39.269Z" fill="url(#paint2_linear)"/>
<path d="M32.0102 27.7227C32.0102 27.4492 31.7889 27.2279 31.5154 27.2279H26.4021C26.1289 27.2279 25.9073 27.4492 25.9073 27.7227V39.7637C25.9073 40.0369 26.1289 40.2586 26.4021 40.2586H31.5154C31.7889 40.2586 32.0102 40.0369 32.0102 39.7637V27.7227ZM26.8969 28.2176H31.0205V39.2689H26.8969V28.2176Z" fill="url(#paint3_linear)"/>
<path d="M41.5772 22.9395C41.5772 22.666 41.3559 22.4447 41.0823 22.4447H35.969C35.6959 22.4447 35.4742 22.666 35.4742 22.9395V39.7639C35.4742 40.0371 35.6959 40.2588 35.969 40.2588H41.0823C41.3559 40.2588 41.5772 40.0371 41.5772 39.7639V22.9395ZM40.505 39.2691H36.4639V23.4344H40.505V39.2691Z" fill="url(#paint4_linear)"/>
<defs>
<linearGradient id="paint0_linear" x1="6.00095" y1="7.77783" x2="43.4272" y2="11.5571" gradientUnits="userSpaceOnUse">
<stop stop-color="#FE5D1E"/>
<stop offset="1" stop-color="#FFA53B"/>
</linearGradient>
<linearGradient id="paint1_linear" x1="16.4223" y1="22.4447" x2="22.83" y2="22.555" gradientUnits="userSpaceOnUse">
<stop stop-color="#FE5D1E"/>
<stop offset="1" stop-color="#FFA53B"/>
</linearGradient>
<linearGradient id="paint2_linear" x1="6.93793" y1="30.1145" x2="13.3416" y2="30.3081" gradientUnits="userSpaceOnUse">
<stop stop-color="#FE5D1E"/>
<stop offset="1" stop-color="#FFA53B"/>
</linearGradient>
<linearGradient id="paint3_linear" x1="25.9073" y1="27.2279" x2="32.3133" y2="27.3786" gradientUnits="userSpaceOnUse">
<stop stop-color="#FE5D1E"/>
<stop offset="1" stop-color="#FFA53B"/>
</linearGradient>
<linearGradient id="paint4_linear" x1="35.4742" y1="22.4447" x2="41.8819" y2="22.555" gradientUnits="userSpaceOnUse">
<stop stop-color="#FE5D1E"/>
<stop offset="1" stop-color="#FFA53B"/>
</linearGradient>
</defs>
</svg>
