<svg width="48" height="48" viewBox="0 0 48 48" fill="none" xmlns="http://www.w3.org/2000/svg">
<path d="M17.6009 40C19.9656 39.999 22.2459 39.1211 24.0005 37.5364C26.9503 40.1863 31.2282 40.7475 34.7626 38.9483C38.297 37.1492 40.3583 33.3611 39.9484 29.4183C39.5386 25.4752 36.7424 22.1915 32.9135 21.1567C34.516 17.1519 33.2476 12.5707 29.8129 9.95875C26.3785 7.34708 21.6223 7.34708 18.1879 9.95875C14.7534 12.5707 13.4848 17.1519 15.0875 21.1567C10.4436 22.413 7.44922 26.9128 8.08486 31.6789C8.72049 36.4449 12.79 40.0031 17.6009 40ZM21.8673 30.406C21.866 29.2647 22.0952 28.1352 22.5412 27.0848C23.507 27.2488 24.4937 27.2488 25.4595 27.0848C26.7376 30.0975 26.1699 33.5764 24.0005 36.0275C22.6266 34.4769 21.8678 32.4773 21.8673 30.406ZM24.9455 26.0886C24.3177 26.1625 23.6833 26.1625 23.0555 26.0886C23.3287 25.6251 23.6451 25.1884 24.0005 24.7842C24.3557 25.1884 24.6721 25.6251 24.9455 26.0886ZM24.7536 24.0318C26.5485 22.4208 28.9484 21.6559 31.3451 21.9313C30.1827 23.9001 28.2796 25.3213 26.061 25.878C25.6996 25.2126 25.2606 24.5921 24.7536 24.0297V24.0318ZM21.9397 25.8822C19.7206 25.3247 17.8173 23.9017 16.6559 21.9313C19.0519 21.6549 21.4517 22.4179 23.2474 24.0274C22.7399 24.5913 22.3011 25.2133 21.9397 25.8801V25.8822ZM38.9329 30.406C38.9386 33.7614 36.9715 36.8074 33.9098 38.1845C30.8477 39.5615 27.2623 39.0123 24.7536 36.7822C27.1854 34.0821 27.8682 30.2342 26.5134 26.8631C29.0593 26.169 31.2089 24.4615 32.4601 22.1395C36.258 23.0871 38.9253 26.4935 38.9329 30.406ZM24.0005 9.08585C26.8613 9.08585 29.5317 10.5188 31.1123 12.902C32.6926 15.2851 32.9734 18.3015 31.8591 20.935C29.0192 20.4702 26.1228 21.3329 24.0005 23.2755C21.8782 21.3329 18.9818 20.4702 16.1416 20.935C15.0276 18.3015 15.3081 15.2851 16.8887 12.902C18.4693 10.5188 21.1397 9.08585 24.0005 9.08585ZM15.5401 22.1395C16.7916 24.4615 18.9412 26.169 21.4871 26.8631C20.132 30.2342 20.8148 34.0821 23.2469 36.7822C20.5979 39.1297 16.7726 39.5963 13.6366 37.9541C10.5003 36.3122 8.70643 32.9036 9.12932 29.3904C9.55221 25.8773 12.1039 22.9913 15.5401 22.1395Z" fill="url(#paint0_linear)"/>
<defs>
<linearGradient id="paint0_linear" x1="8" y1="8" x2="41.523" y2="9.68412" gradientUnits="userSpaceOnUse">
<stop stop-color="#FE5D1E"/>
<stop offset="1" stop-color="#FFA53B"/>
</linearGradient>
</defs>
</svg>
