<svg width="48" height="48" viewBox="0 0 48 48" fill="none" xmlns="http://www.w3.org/2000/svg">
<path d="M47.434 25.9942L41.8259 12.3798C41.7726 12.2513 41.6693 12.1488 41.5395 12.0952C41.4092 12.0416 41.2631 12.0421 41.1328 12.0962L34.8432 14.7019C34.5769 14.8122 34.4503 15.1135 34.5589 15.3779L34.8918 16.1856L33.1385 16.8876L31.3308 15.6548C31.2654 15.61 31.1905 15.5803 31.1119 15.5684L21.369 14.0753C20.7101 13.9749 20.0234 14.1513 19.4827 14.5723L17.6007 16.1221L13.1193 16.2074L13.3894 15.6277C13.5101 15.3685 13.3978 15.0625 13.1367 14.9402L6.97107 12.0504C6.84447 11.9906 6.69784 11.9838 6.56491 12.0312C6.43199 12.079 6.32439 12.1769 6.26584 12.3028L0.0485176 25.6492C-0.0722736 25.9084 0.0400781 26.2144 0.301177 26.3367L6.46628 29.2265C6.53748 29.2598 6.61449 29.277 6.69256 29.277C6.75322 29.277 6.81388 29.2666 6.87243 29.2457C7.00535 29.1979 7.11296 29.1 7.17151 28.9741L7.72324 27.7902L22.6159 36.6454C22.9825 36.8635 23.3939 36.9707 23.8038 36.9707C24.3291 36.9707 24.8524 36.7943 25.2765 36.4482L26.1616 35.7259C26.4902 35.9205 26.8552 36.0235 27.2218 36.0235C27.6976 36.0235 28.1723 35.8607 28.5584 35.5385C28.9229 35.2351 29.1629 34.8162 29.2578 34.3588C29.6207 34.5841 30.0353 34.6981 30.4504 34.6981C30.9932 34.6981 31.537 34.505 31.9638 34.1168C32.342 33.7738 32.5767 33.3242 32.6595 32.8314C33.005 33.026 33.3858 33.1322 33.7704 33.1322C34.3311 33.1322 34.8928 32.925 35.3338 32.5092C35.7816 32.0877 36.0353 31.5173 36.049 30.9027C36.0585 30.4812 35.9462 30.0784 35.741 29.7224L39.6417 27.721L40.1649 28.9918C40.2182 29.1203 40.3216 29.2228 40.4513 29.2765C40.5162 29.303 40.5848 29.316 40.6539 29.316C40.7235 29.316 40.7931 29.3025 40.858 29.2754L47.1481 26.6692C47.4161 26.5599 47.5427 26.2581 47.434 25.9942ZM6.43674 28.0597L1.22425 25.6169L7.00008 13.2172L12.2131 15.66L6.43674 28.0597ZM34.6064 31.7572C34.1275 32.2069 33.3869 32.1996 32.9201 31.7416L32.1426 30.9761C32.1373 30.9709 32.1299 30.9693 32.1241 30.9641C32.0951 30.9314 32.0724 30.8944 32.0413 30.8627L28.4735 27.2994C28.2688 27.0954 27.9349 27.0928 27.7276 27.2953C27.5203 27.4972 27.5188 27.8266 27.7234 28.0311L31.2912 31.5944C31.5281 31.8306 31.6541 32.1465 31.6462 32.4827C31.6378 32.8189 31.4975 33.127 31.2506 33.3518C30.7854 33.7749 30.0902 33.7676 29.6292 33.331L28.647 32.4166L26.0777 30.0003C25.8672 29.8026 25.5334 29.8099 25.3319 30.0175C25.1309 30.2257 25.1388 30.5551 25.3493 30.7534L27.9217 33.1722C27.9223 33.1727 27.9223 33.1733 27.9228 33.1738L27.9244 33.1754C28.1417 33.3799 28.2614 33.6687 28.253 33.969C28.244 34.2698 28.1079 34.5518 27.878 34.7433C27.5172 35.0431 27.0013 35.0603 26.6447 34.8037L23.8059 32.5108C23.5796 32.3281 23.2473 32.362 23.0637 32.5836C22.8786 32.8064 22.9123 33.1342 23.1376 33.3159L25.3097 35.0702L24.6039 35.6462C24.1946 35.9809 23.6139 36.0235 23.1608 35.754L8.16685 26.8383L12.6298 17.2587L16.3063 17.1884L14.6031 18.5914C14.3847 18.7715 14.3504 19.0895 14.525 19.3112C15.6332 20.7116 17.4419 21.1789 18.9605 20.4253L20.87 19.2857L24.9552 20.0153L34.6454 29.9863C34.8786 30.2267 35.0031 30.5442 34.9952 30.8809C34.9878 31.2165 34.8496 31.5277 34.6064 31.7572ZM35.0537 28.9028L25.5982 19.1722C25.5212 19.0931 25.421 19.04 25.3118 19.0202L20.8615 18.2251C20.7344 18.2022 20.6046 18.2271 20.4944 18.2922L18.451 19.5146C17.5606 19.9539 16.4898 19.7535 15.7028 19.0411L20.1473 15.381C20.4469 15.1479 20.8325 15.0459 21.2076 15.1047L30.8308 16.5795L32.7734 17.9045C32.9185 18.0034 33.1068 18.0237 33.2714 17.9586L35.289 17.1504L39.2439 26.7535L35.0537 28.9028ZM40.9429 28.1128L35.7326 15.4622L41.049 13.2593L46.2599 25.9099L40.9429 28.1128Z" fill="url(#paint0_linear)"/>
<defs>
<linearGradient id="paint0_linear" x1="0" y1="12" x2="49.4071" y2="16.7188" gradientUnits="userSpaceOnUse">
<stop stop-color="#FE5D1E"/>
<stop offset="1" stop-color="#FFA53B"/>
</linearGradient>
</defs>
</svg>
